<?xml version="1.0" standalone="no"?>
<!DOCTYPE svg PUBLIC "-//W3C//DTD SVG 20010904//EN"
 "http://www.w3.org/TR/2001/REC-SVG-20010904/DTD/svg10.dtd">
<svg version="1.0" xmlns="http://www.w3.org/2000/svg"
 width="1024.000000pt" height="1024.000000pt" viewBox="0 0 1024.000000 1024.000000"
 preserveAspectRatio="xMidYMid meet">

<g transform="translate(0.000000,1024.000000) scale(0.100000,-0.100000)"
fill="#000000" stroke="none">
<path d="M1738 9762 c-45 -2 -70 -8 -79 -19 -8 -8 -16 -52 -19 -96 l-5 -81
-210 -3 c-297 -4 -430 -12 -452 -28 -17 -13 -18 -41 -18 -477 -1 -255 -5 -605
-9 -779 -5 -173 -6 -327 -3 -342 13 -49 63 -56 462 -64 312 -5 511 3 1035 43
267 20 351 32 372 52 16 15 17 34 9 197 -12 272 -13 734 -1 975 16 345 16 398
-4 418 -15 15 -49 17 -281 20 l-265 3 0 75 c0 123 16 116 -243 112 -122 -2
-252 -4 -289 -6z m462 -206 c0 -80 -3 -147 -7 -149 -5 -3 -60 -7 -123 -11 -63
-3 -172 -8 -242 -12 l-128 -6 0 78 c0 44 3 116 7 162 l6 82 243 0 244 0 0
-144z m569 -51 c2 -2 -2 -102 -9 -222 -14 -234 -16 -832 -5 -1104 l7 -166 -32
-6 c-42 -9 -505 -44 -753 -57 -252 -14 -733 -14 -857 -1 -52 6 -101 11 -109
11 -11 0 -12 22 -7 123 4 67 9 410 12 761 l5 640 27 2 c15 1 152 5 305 9 l277
8 0 -80 c0 -113 4 -116 157 -109 65 3 190 8 278 12 195 7 197 8 203 114 l4 69
82 3 c98 4 409 -2 415 -7z"/>
<path d="M8792 9621 c-29 -10 -66 -31 -82 -46 -48 -46 -53 -79 -35 -202 14
-94 15 -112 3 -141 -12 -27 -12 -50 -2 -145 12 -106 192 -1538 234 -1862 10
-82 35 -281 55 -441 l35 -291 68 -174 c102 -257 161 -395 184 -424 27 -34 68
-31 86 7 15 32 63 315 88 516 14 120 15 161 6 250 -14 131 -80 750 -87 812
-51 451 -53 480 -26 480 34 0 68 38 80 88 9 37 8 91 -4 247 -20 252 -61 583
-81 655 -20 70 -57 119 -105 138 -40 15 -40 17 -55 112 -7 50 -16 70 -41 96
-11 11 -24 53 -34 115 -19 115 -50 184 -93 210 -40 24 -123 24 -194 0z m148
-61 c18 -12 2 -12 -25 0 -13 6 -15 9 -5 9 8 0 22 -4 30 -9z m-123 -16 c-3 -3
-12 -4 -19 -1 -8 3 -5 6 6 6 11 1 17 -2 13 -5z m-37 -8 c0 -2 -8 -10 -17 -17
-16 -13 -17 -12 -4 4 13 16 21 21 21 13z m200 -31 c0 -5 -5 -3 -10 5 -5 8 -10
20 -10 25 0 6 5 3 10 -5 5 -8 10 -19 10 -25z m-233 -27 c-3 -8 -6 -5 -6 6 -1
11 2 17 5 13 3 -3 4 -12 1 -19z m240 -10 c-3 -8 -6 -5 -6 6 -1 11 2 17 5 13 3
-3 4 -12 1 -19z m10 -50 c-3 -7 -5 -2 -5 12 0 14 2 19 5 13 2 -7 2 -19 0 -25z
m-240 -30 c-3 -8 -6 -5 -6 6 -1 11 2 17 5 13 3 -3 4 -12 1 -19z m250 -40 c-2
-13 -4 -5 -4 17 -1 22 1 32 4 23 2 -10 2 -28 0 -40z m-223 -30 c7 -5 5 -8 -6
-8 -14 0 -18 8 -17 33 2 27 2 28 6 7 3 -14 10 -28 17 -32z m219 -65 c-7 -2
-21 -2 -30 0 -10 3 -4 5 12 5 17 0 24 -2 18 -5z m65 -15 c7 -7 11 -23 11 -37
-1 -24 -2 -24 -8 4 -4 20 -14 31 -31 36 -21 6 -22 7 -4 8 11 1 25 -4 32 -11z
m-253 -8 c-27 -12 -43 -12 -25 0 8 5 22 9 30 9 10 0 8 -3 -5 -9z m-53 -22 c-6
-7 -12 -26 -15 -43 l-4 -30 -2 31 c0 16 4 35 11 42 16 16 23 15 10 0z m325
-105 c-3 -10 -5 -4 -5 12 0 17 2 24 5 18 2 -7 2 -21 0 -30z m-320 -85 c-3 -7
-5 -2 -5 12 0 14 2 19 5 13 2 -7 2 -19 0 -25z m330 -20 c-3 -7 -5 -2 -5 12 0
14 2 19 5 13 2 -7 2 -19 0 -25z m96 -28 c4 -30 3 -38 -3 -25 -8 19 -14 83 -6
74 2 -2 6 -24 9 -49z m44 -12 c-3 -8 -6 -5 -6 6 -1 11 2 17 5 13 3 -3 4 -12 1
-19z m-130 -100 c-2 -13 -4 -3 -4 22 0 25 2 35 4 23 2 -13 2 -33 0 -45z m90
25 c-3 -10 -5 -4 -5 12 0 17 2 24 5 18 2 -7 2 -21 0 -30z m-410 -10 c-3 -10
-5 -4 -5 12 0 17 2 24 5 18 2 -7 2 -21 0 -30z m470 -5 c-3 -7 -5 -2 -5 12 0
14 2 19 5 13 2 -7 2 -19 0 -25z m-309 -45 c-10 -2 -26 -2 -35 0 -10 3 -2 5 17
5 19 0 27 -2 18 -5z m169 1 c-3 -3 -12 -4 -19 -1 -8 3 -5 6 6 6 11 1 17 -2 13
-5z m-240 -10 c-3 -3 -12 -4 -19 -1 -8 3 -5 6 6 6 11 1 17 -2 13 -5z m-67 -8
c0 -3 -4 -8 -10 -11 -5 -3 -10 -1 -10 4 0 6 5 11 10 11 6 0 10 -2 10 -4z m397
-18 c-3 -8 -6 -5 -6 6 -1 11 2 17 5 13 3 -3 4 -12 1 -19z m70 -50 c-3 -8 -6
-5 -6 6 -1 11 2 17 5 13 3 -3 4 -12 1 -19z m-274 -5 c-13 -2 -33 -2 -45 0 -13
2 -3 4 22 4 25 0 35 -2 23 -4z m85 0 c-10 -2 -28 -2 -40 0 -13 2 -5 4 17 4 22
1 32 -1 23 -4z m40 -39 c-3 -27 -4 -26 -9 8 -3 22 -1 34 4 29 5 -5 7 -21 5
-37z m89 14 c-3 -7 -5 -2 -5 12 0 14 2 19 5 13 2 -7 2 -19 0 -25z m-403 -13
c-4 -8 -8 -15 -10 -15 -2 0 -4 7 -4 15 0 8 4 15 10 15 5 0 7 -7 4 -15z m473
-37 c-3 -7 -5 -2 -5 12 0 14 2 19 5 13 2 -7 2 -19 0 -25z m-470 -50 c-3 -7 -5
-2 -5 12 0 14 2 19 5 13 2 -7 2 -19 0 -25z m320 -20 c-2 -13 -4 -5 -4 17 -1
22 1 32 4 23 2 -10 2 -28 0 -40z m90 10 c-3 -7 -5 -2 -5 12 0 14 2 19 5 13 2
-7 2 -19 0 -25z m70 -45 c-3 -10 -5 -2 -5 17 0 19 2 27 5 18 2 -10 2 -26 0
-35z m-470 -15 c-3 -7 -5 -2 -5 12 0 14 2 19 5 13 2 -7 2 -19 0 -25z m320 -50
c-2 -13 -4 -5 -4 17 -1 22 1 32 4 23 2 -10 2 -28 0 -40z m161 -19 c-3 -20 -5
-19 -9 9 -3 20 -2 29 4 23 5 -5 7 -19 5 -32z m-471 -6 c-3 -10 -5 -4 -5 12 0
17 2 24 5 18 2 -7 2 -21 0 -30z m320 -40 c-3 -10 -5 -4 -5 12 0 17 2 24 5 18
2 -7 2 -21 0 -30z m90 5 c-3 -8 -6 -5 -6 6 -1 11 2 17 5 13 3 -3 4 -12 1 -19z
m-400 -60 c-3 -7 -5 -2 -5 12 0 14 2 19 5 13 2 -7 2 -19 0 -25z m470 -40 c-2
-13 -4 -5 -4 17 -1 22 1 32 4 23 2 -10 2 -28 0 -40z m-150 0 c-3 -7 -5 -2 -5
12 0 14 2 19 5 13 2 -7 2 -19 0 -25z m11 -64 c-3 -14 -5 -12 -10 9 -3 19 -2
25 4 19 6 -6 8 -18 6 -28z m152 -9 c0 -19 -2 -35 -4 -35 -2 0 -6 16 -8 35 -2
19 0 35 4 35 4 0 8 -16 8 -35z m-140 -69 c0 -26 -6 -18 -14 19 -5 22 -4 26 4
15 5 -8 10 -24 10 -34z m-313 -18 c-3 -8 -6 -5 -6 6 -1 11 2 17 5 13 3 -3 4
-12 1 -19z m460 -15 c-3 -10 -5 -4 -5 12 0 17 2 24 5 18 2 -7 2 -21 0 -30z
m-50 -60 c-3 -10 -5 -4 -5 12 0 17 2 24 5 18 2 -7 2 -21 0 -30z m-90 -5 c-3
-8 -6 -5 -6 6 -1 11 2 17 5 13 3 -3 4 -12 1 -19z m-310 -30 c-3 -7 -5 -2 -5
12 0 14 2 19 5 13 2 -7 2 -19 0 -25z m410 -20 c-3 -7 -5 -2 -5 12 0 14 2 19 5
13 2 -7 2 -19 0 -25z m-90 -50 c-2 -13 -4 -5 -4 17 -1 22 1 32 4 23 2 -10 2
-28 0 -40z m-310 10 c-3 -8 -6 -5 -6 6 -1 11 2 17 5 13 3 -3 4 -12 1 -19z
m320 -85 c-3 -10 -5 -4 -5 12 0 17 2 24 5 18 2 -7 2 -21 0 -30z m-310 -5 c-3
-7 -5 -2 -5 12 0 14 2 19 5 13 2 -7 2 -19 0 -25z m10 -95 c-3 -10 -5 -2 -5 17
0 19 2 27 5 18 2 -10 2 -26 0 -35z m10 -70 c-3 -10 -5 -2 -5 17 0 19 2 27 5
18 2 -10 2 -26 0 -35z m310 -40 c-2 -16 -4 -5 -4 22 0 28 2 40 4 28 2 -13 2
-35 0 -50z m-300 -20 c-3 -10 -5 -4 -5 12 0 17 2 24 5 18 2 -7 2 -21 0 -30z
m310 -60 c-3 -10 -5 -2 -5 17 0 19 2 27 5 18 2 -10 2 -26 0 -35z m-300 -30
c-3 -10 -5 -4 -5 12 0 17 2 24 5 18 2 -7 2 -21 0 -30z m313 -38 c0 -19 -2 -35
-4 -35 -2 0 -6 16 -8 35 -2 19 0 35 4 35 4 0 8 -16 8 -35z m-303 -52 c-3 -10
-5 -2 -5 17 0 19 2 27 5 18 2 -10 2 -26 0 -35z m310 -55 c-3 -7 -5 -2 -5 12 0
14 2 19 5 13 2 -7 2 -19 0 -25z m-300 -25 c-3 -10 -5 -4 -5 12 0 17 2 24 5 18
2 -7 2 -21 0 -30z m310 -80 c-3 -10 -5 -2 -5 17 0 19 2 27 5 18 2 -10 2 -26 0
-35z m-300 5 c-3 -8 -6 -5 -6 6 -1 11 2 17 5 13 3 -3 4 -12 1 -19z m21 -148
c0 -16 -3 -10 -9 15 -4 22 -8 54 -7 70 0 22 3 19 9 -15 4 -25 7 -56 7 -70z
m289 43 c-3 -10 -5 -4 -5 12 0 17 2 24 5 18 2 -7 2 -21 0 -30z m10 -105 c-3
-8 -6 -5 -6 6 -1 11 2 17 5 13 3 -3 4 -12 1 -19z m-280 -110 c-3 -8 -6 -5 -6
6 -1 11 2 17 5 13 3 -3 4 -12 1 -19z m10 -85 c-3 -10 -5 -4 -5 12 0 17 2 24 5
18 2 -7 2 -21 0 -30z m10 -75 c-3 -7 -5 -2 -5 12 0 14 2 19 5 13 2 -7 2 -19 0
-25z m290 -10 c-3 -7 -5 -2 -5 12 0 14 2 19 5 13 2 -7 2 -19 0 -25z m10 -90
c-2 -13 -4 -5 -4 17 -1 22 1 32 4 23 2 -10 2 -28 0 -40z m-280 -50 c-3 -7 -5
-2 -5 12 0 14 2 19 5 13 2 -7 2 -19 0 -25z m291 -39 c-3 -33 -4 -33 -8 8 -3
23 -2 39 3 34 5 -5 7 -24 5 -42z m-281 -66 c-3 -10 -5 -2 -5 17 0 19 2 27 5
18 2 -10 2 -26 0 -35z m211 10 c-10 -2 -26 -2 -35 0 -10 3 -2 5 17 5 19 0 27
-2 18 -5z m65 0 c-7 -2 -21 -2 -30 0 -10 3 -4 5 12 5 17 0 24 -2 18 -5z m-198
-23 c-3 -5 -12 -10 -18 -10 -7 0 -6 4 3 10 19 12 23 12 15 0z m-50 -20 c-3 -5
-12 -10 -18 -10 -7 0 -6 4 3 10 19 12 23 12 15 0z m242 -46 c-3 -3 -12 -4 -19
-1 -8 3 -5 6 6 6 11 1 17 -2 13 -5z m-104 -11 c-7 -2 -19 -2 -25 0 -7 3 -2 5
12 5 14 0 19 -2 13 -5z m-126 -75 c-3 -8 -6 -5 -6 6 -1 11 2 17 5 13 3 -3 4
-12 1 -19z m230 -70 c-3 -8 -6 -5 -6 6 -1 11 2 17 5 13 3 -3 4 -12 1 -19z
m-147 -133 c0 -5 -5 -3 -10 5 -5 8 -10 20 -10 25 0 6 5 3 10 -5 5 -8 10 -19
10 -25z m127 -27 c-3 -8 -6 -5 -6 6 -1 11 2 17 5 13 3 -3 4 -12 1 -19z m-107
-23 c0 -5 -5 -3 -10 5 -5 8 -10 20 -10 25 0 6 5 3 10 -5 5 -8 10 -19 10 -25z
m55 -45 c4 -6 -6 -10 -22 -9 -25 0 -26 1 -8 9 11 5 21 9 22 9 1 1 5 -3 8 -9z
m16 -117 c-12 -20 -14 -14 -5 12 4 9 9 14 11 11 3 -2 0 -13 -6 -23z"/>
<path d="M4724 9046 c-23 -7 -61 -27 -85 -43 -96 -66 -1306 -1313 -1799 -1853
-347 -380 -405 -453 -465 -575 -58 -119 -75 -303 -40 -435 56 -212 171 -309
600 -503 274 -123 516 -231 770 -342 160 -70 346 -152 415 -182 616 -272 1101
-475 1209 -507 105 -31 209 -16 294 43 61 41 781 862 1567 1786 575 676 583
687 584 780 1 68 -27 106 -109 145 l-65 31 -1 90 c-1 49 -2 116 -2 149 0 221
-2 210 53 281 55 71 68 113 52 168 -20 66 -56 88 -259 162 -383 140 -1288 435
-1938 632 -576 175 -695 202 -781 173z m301 -106 c637 -177 2355 -733 2544
-823 53 -25 77 -61 67 -100 -3 -14 -59 -84 -124 -153 -137 -149 -360 -399
-666 -749 -121 -137 -242 -275 -270 -305 -28 -30 -118 -131 -201 -224 -705
-795 -927 -1038 -961 -1052 -53 -22 -92 -17 -204 29 -58 24 -233 95 -390 159
-157 64 -364 149 -460 188 -212 88 -1018 410 -1375 550 -308 121 -364 133
-413 84 -24 -24 -31 -43 -40 -107 -30 -196 3 -394 75 -459 11 -10 107 -56 214
-102 107 -46 301 -131 433 -190 131 -58 240 -106 242 -106 3 0 400 -172 594
-257 69 -31 256 -112 415 -181 160 -68 414 -178 565 -244 331 -144 363 -155
396 -137 28 15 169 157 277 279 41 47 166 189 279 315 112 127 325 370 473
540 148 171 355 409 460 530 386 443 618 721 636 760 10 22 19 59 19 83 l0 43
29 -16 c16 -8 39 -26 50 -41 24 -31 21 -58 -14 -119 -22 -38 -341 -425 -565
-685 -59 -69 -260 -303 -446 -520 -186 -217 -423 -492 -527 -610 -105 -118
-264 -299 -355 -402 -196 -223 -243 -258 -341 -258 -80 0 -121 17 -1071 425
-172 74 -627 274 -935 410 -709 314 -843 381 -925 466 -138 143 -158 427 -43
629 68 120 249 328 710 818 670 711 1365 1425 1479 1519 92 75 139 77 369 13z
m2496 -1242 c-2 -40 2 -159 9 -263 15 -229 17 -222 -102 -355 -46 -52 -193
-221 -325 -375 -132 -154 -305 -354 -384 -446 -79 -91 -247 -284 -374 -429
-457 -526 -876 -990 -892 -990 -16 0 -32 31 -50 95 -17 59 -29 360 -19 458 7
62 9 66 36 72 16 3 50 25 76 48 66 58 889 973 1459 1622 267 304 563 635 569
635 1 0 0 -33 -3 -72z m-4511 -1325 c386 -153 1101 -439 1345 -538 616 -251
927 -375 944 -375 27 0 31 -10 21 -56 -5 -21 -10 -78 -12 -126 -2 -49 -6 -88
-10 -88 -4 0 -58 22 -120 49 -62 27 -194 83 -293 124 -99 41 -267 111 -373
156 -107 46 -200 80 -208 77 -17 -7 -18 -30 -1 -43 6 -5 84 -40 172 -77 88
-37 311 -133 495 -213 l336 -145 12 -89 c7 -49 19 -108 27 -131 8 -23 13 -43
12 -44 -5 -4 -883 374 -1777 764 -239 104 -525 229 -635 277 -310 135 -302
131 -318 162 -23 44 -37 137 -37 242 0 150 26 217 79 204 14 -3 168 -62 341
-130z"/>
<path d="M4797 8750 c-695 -709 -1311 -1354 -1633 -1710 -268 -297 -289 -324
-262 -341 15 -10 36 10 328 331 288 317 690 738 1296 1362 259 266 386 404
403 437 10 17 10 26 2 34 -9 9 -44 -21 -134 -113z"/>
<path d="M4898 8163 c-16 -10 -76 -72 -135 -138 -58 -66 -132 -147 -164 -180
-143 -150 -172 -198 -144 -241 14 -22 67 -43 530 -209 132 -47 380 -138 550
-201 345 -127 368 -132 431 -86 63 46 379 417 406 478 17 37 -6 79 -55 102
-105 48 -1286 470 -1362 486 -20 4 -39 1 -57 -11z m382 -171 c173 -60 446
-157 605 -214 160 -58 313 -114 342 -124 94 -33 94 -33 28 -116 -108 -135
-242 -293 -288 -341 -61 -62 -76 -61 -263 9 -82 31 -376 138 -654 239 -597
217 -540 195 -540 204 0 10 89 111 265 301 119 129 153 161 170 156 11 -2 162
-54 335 -114z"/>
<path d="M7377 7346 c-48 -54 -279 -318 -496 -565 -104 -120 -161 -193 -161
-207 0 -43 45 2 342 341 401 458 388 443 388 470 0 14 -4 25 -8 25 -5 0 -34
-29 -65 -64z"/>
<path d="M6369 6253 c-31 -32 -143 -157 -250 -279 -107 -121 -286 -325 -399
-453 -113 -128 -209 -239 -214 -248 -10 -19 5 -36 26 -28 9 4 58 54 109 113
200 227 586 662 674 757 125 138 145 163 139 180 -10 26 -28 17 -85 -42z"/>
<path d="M2670 6284 c-21 -24 2 -39 171 -108 189 -78 493 -207 779 -331 279
-121 297 -128 315 -121 8 3 15 14 15 25 0 24 -44 44 -945 418 -99 41 -210 88
-247 104 -78 34 -72 33 -88 13z"/>
<path d="M1085 5826 c-176 -56 -269 -208 -220 -357 35 -105 141 -183 490 -363
105 -54 242 -127 305 -162 139 -77 189 -95 257 -95 57 0 102 18 131 56 l20 25
113 -66 c136 -79 375 -199 553 -279 121 -54 136 -58 223 -63 l92 -5 36 36 c53
53 50 95 -14 179 -75 98 -288 260 -491 372 -36 19 -76 49 -88 65 -32 44 -108
92 -387 244 -137 74 -315 172 -395 217 -346 193 -491 238 -625 196z m105 -67
c0 -4 -25 -9 -56 -11 -31 -3 -59 -10 -64 -17 -4 -7 -10 -12 -14 -12 -20 3 -29
-2 -56 -31 -23 -23 -30 -38 -26 -54 4 -13 1 -26 -6 -30 -8 -5 -9 -2 -5 9 3 10
2 17 -3 17 -13 0 -21 -32 -19 -77 3 -67 8 -76 40 -69 24 5 27 3 17 -8 -7 -7
-20 -11 -28 -8 -13 5 -13 2 1 -18 17 -26 31 -30 38 -9 2 8 -1 9 -10 3 -12 -7
-12 -5 0 9 16 20 31 13 31 -14 0 -11 -7 -19 -16 -19 -14 0 -14 -2 -3 -16 8 -9
15 -12 17 -6 2 6 9 9 17 6 8 -3 12 -11 10 -17 -4 -13 48 -50 86 -62 22 -7 22
-7 7 16 -14 22 -9 69 7 69 4 0 3 -5 -1 -11 -3 -6 0 -15 7 -20 11 -7 10 -9 -4
-9 -16 0 -16 -2 -2 -23 8 -13 13 -26 9 -29 -3 -3 0 -9 7 -13 9 -6 10 -1 5 19
-4 16 -2 26 4 26 6 0 9 -4 6 -9 -7 -11 22 -36 31 -27 4 4 3 10 -3 14 -12 8
-12 27 -1 39 5 4 8 4 7 -2 -6 -26 1 -37 17 -31 15 6 14 4 -2 -14 -10 -11 -25
-18 -33 -15 -8 3 -12 0 -9 -7 2 -7 13 -13 25 -13 12 0 22 -4 23 -10 3 -16 59
-46 72 -39 7 4 9 4 5 -1 -4 -4 4 -14 18 -22 31 -15 48 -17 39 -3 -3 6 -1 10 4
10 6 0 11 -8 11 -18 0 -21 96 -76 113 -65 6 4 7 1 2 -7 -6 -10 -4 -12 9 -7 11
5 15 3 10 -5 -5 -8 -1 -9 12 -4 39 15 53 15 47 -1 -4 -11 -8 -11 -13 -3 -5 8
-10 9 -14 2 -11 -18 31 -34 57 -22 18 9 19 8 5 -2 -15 -11 -12 -15 25 -36 39
-22 42 -22 54 -6 7 10 13 13 13 7 0 -7 -5 -15 -10 -18 -6 -4 -7 -11 -4 -17 4
-7 0 -7 -12 0 -17 8 -213 112 -424 224 -268 143 -347 219 -333 324 12 86 70
156 153 184 50 17 110 22 110 9z m124 -20 c39 -12 76 -24 81 -28 6 -5 30 -16
55 -25 25 -10 106 -52 180 -93 74 -42 209 -116 300 -166 91 -49 188 -101 215
-117 28 -15 86 -46 130 -70 44 -23 95 -52 114 -63 l34 -20 -36 -19 c-65 -33
-117 -122 -117 -202 l0 -44 -107 64 c-59 36 -115 76 -124 90 -9 14 -39 43 -67
64 -77 57 -656 390 -679 390 -7 0 -18 -9 -25 -20 -7 -11 -18 -20 -25 -20 -6 0
-13 -5 -15 -12 -3 -7 -7 -5 -11 6 -4 10 -3 15 3 11 6 -3 10 -1 10 6 0 7 3 10
6 7 3 -4 14 2 25 13 26 26 43 24 104 -11 28 -16 55 -28 58 -25 4 3 5 2 2 -2
-8 -10 55 -44 67 -37 6 4 8 3 5 -3 -4 -6 0 -14 9 -17 12 -5 14 -1 9 17 -7 22
-7 22 8 2 8 -11 14 -22 12 -25 -2 -3 18 -18 45 -33 49 -28 49 -28 62 -7 15 24
25 26 25 6 0 -8 -5 -14 -10 -13 -20 4 -17 -22 3 -33 25 -13 42 -4 20 11 -13 9
-13 10 0 6 8 -2 15 -10 15 -18 0 -8 8 -20 19 -28 15 -12 20 -12 28 0 8 11 9
11 5 -2 -6 -19 37 -44 55 -33 7 4 8 2 4 -4 -7 -11 31 -38 41 -28 3 3 14 -5 24
-17 12 -15 18 -17 19 -8 0 16 15 5 15 -11 0 -6 6 -13 14 -16 9 -3 11 0 6 8 -5
9 -4 11 4 6 6 -4 9 -12 6 -17 -4 -5 -2 -9 3 -9 5 0 14 11 20 25 9 19 9 25 -1
26 -9 0 -9 2 0 5 7 3 9 13 6 22 -4 14 -3 14 5 2 6 -8 8 -18 6 -22 -3 -4 2 -8
10 -8 9 0 16 -4 16 -10 0 -5 -7 -7 -16 -3 -14 5 -16 2 -10 -23 4 -19 3 -24 -2
-15 -6 8 -12 9 -16 3 -8 -13 15 -30 37 -27 14 3 16 0 7 -10 -14 -17 7 -25 38
-14 15 6 21 5 17 -1 -3 -6 -14 -10 -23 -10 -11 0 -13 -3 -5 -11 15 -15 54 7
51 29 -2 11 3 16 14 14 27 -4 29 14 3 26 -25 11 -34 32 -15 32 6 0 10 -4 10
-10 0 -5 4 -10 9 -10 5 0 7 9 4 20 -4 15 -9 17 -22 10 -11 -5 -23 -5 -32 1
-12 9 -12 10 1 6 20 -6 52 11 45 23 -3 5 7 2 23 -7 16 -9 29 -21 29 -27 0 -6
4 -19 8 -28 4 -11 3 -18 -4 -18 -6 0 -10 3 -9 8 2 4 -5 18 -15 32 -13 18 -17
20 -17 8 0 -9 4 -19 9 -22 10 -7 9 -25 -2 -43 -5 -8 6 -11 40 -8 57 3 56 3 48
15 -4 7 -14 6 -28 -1 -21 -11 -21 -11 -4 7 16 17 18 18 35 1 16 -17 16 -19 -3
-30 -24 -13 -84 -17 -91 -6 -8 14 -21 10 -28 -7 -5 -12 -2 -15 10 -10 10 4 14
2 11 -6 -2 -7 -10 -12 -16 -11 -15 4 -14 -14 1 -19 7 -3 5 -7 -6 -11 -9 -4
-15 -3 -12 2 3 5 -1 14 -9 21 -18 15 -20 0 -2 -22 17 -21 114 -78 121 -71 11
11 6 24 -6 17 -7 -5 -8 -3 -3 6 6 10 4 12 -8 7 -10 -3 -17 -2 -17 2 0 5 -3 17
-7 27 -6 15 -3 15 17 -3 12 -12 28 -19 33 -16 6 4 2 11 -11 16 -11 5 -24 17
-27 25 -5 13 -3 13 13 -1 10 -9 22 -14 25 -10 4 3 7 1 7 -6 0 -7 4 -9 10 -6 6
4 4 15 -5 29 -14 21 -14 25 0 36 9 7 15 8 15 2 0 -6 8 -9 18 -7 9 2 19 4 21 4
3 1 -4 8 -15 17 -16 13 -17 15 -1 10 14 -4 16 -1 11 19 -4 16 -2 25 6 25 7 0
10 -7 6 -15 -3 -8 -1 -15 3 -15 5 0 12 6 14 13 3 6 6 -1 6 -18 0 -20 -2 -26
-8 -16 -5 8 -11 9 -15 3 -3 -6 -2 -13 4 -17 23 -14 8 -24 -30 -20 -33 3 -38 2
-28 -9 7 -8 16 -12 20 -9 5 2 16 -1 25 -7 15 -9 14 -10 -6 -4 -21 6 -23 4 -17
-17 14 -47 16 -68 8 -73 -4 -2 -12 7 -19 20 -6 13 -7 22 -2 18 5 -3 9 2 9 10
0 19 -16 21 -26 4 -17 -28 -10 -59 18 -72 15 -8 27 -11 26 -8 -3 13 24 97 40
126 10 16 27 40 40 53 13 13 21 27 18 31 -3 5 4 8 16 8 12 -1 23 6 26 14 5 13
3 13 -11 1 -15 -12 -17 -11 -17 7 0 21 -32 40 -38 22 -3 -8 -8 -8 -18 1 -8 6
-11 15 -8 20 9 15 -24 10 -40 -7 -9 -9 -16 -11 -16 -4 0 6 -4 8 -10 5 -13 -8
-13 -35 -1 -35 5 0 16 7 25 15 18 18 27 19 23 3 -1 -7 5 -12 13 -10 8 2 11 0
7 -5 -5 -4 -16 -8 -25 -9 -56 -3 -58 -4 -42 -15 13 -9 13 -10 0 -6 -8 2 -14
10 -12 17 2 8 -3 10 -15 5 -31 -12 -37 -10 -40 10 -1 11 0 14 3 6 5 -11 8 -11
15 0 7 11 9 11 9 1 0 -7 5 -10 10 -7 15 9 12 25 -5 25 -8 0 -15 4 -15 9 0 6
-9 8 -20 6 -11 -2 -19 -1 -19 3 3 20 -2 25 -11 12 -6 -10 -10 -11 -10 -2 0 6
-9 12 -19 12 -11 0 -22 6 -25 13 -3 6 -3 2 -1 -10 3 -12 1 -24 -5 -28 -6 -4
-11 -1 -9 6 4 30 -2 49 -13 46 -7 -1 -12 5 -10 14 1 9 -9 21 -22 27 -21 10
-25 8 -30 -14 -7 -28 -26 -33 -26 -6 0 14 -2 15 -9 2 -6 -8 -7 -19 -3 -25 3
-5 -1 -4 -10 2 -8 7 -19 9 -23 5 -5 -4 -5 -2 -2 4 7 11 -19 29 -36 25 -5 -1
-6 3 -2 9 3 6 10 8 15 5 4 -3 13 2 20 10 9 10 9 15 1 15 -6 0 -11 5 -11 11 0
6 9 8 20 4 15 -5 18 -3 14 9 -4 9 0 18 10 22 9 3 13 10 10 16 -3 5 -12 4 -20
-3 -11 -9 -13 -9 -9 2 6 18 -65 53 -113 55 -33 1 -34 0 -16 -14 18 -14 18 -14
-1 -7 -11 4 -25 8 -32 8 -7 0 -10 4 -7 9 3 4 -2 11 -10 14 -12 5 -13 9 -3 25
10 16 9 21 -3 29 -9 6 -16 6 -18 0 -2 -6 -8 -8 -13 -4 -5 3 -9 0 -9 -5 0 -6 5
-11 10 -11 6 0 10 -5 10 -12 0 -8 -6 -6 -17 5 -13 13 -14 20 -5 29 9 9 7 14
-6 24 -19 15 -36 18 -28 6 2 -4 -4 -9 -15 -9 -10 -1 -19 3 -19 8 0 6 4 8 9 4
5 -3 12 -1 15 4 7 11 -274 153 -308 155 -14 0 -26 5 -26 10 0 4 -7 5 -15 2
-46 -19 -50 -19 -30 -3 17 14 18 16 3 17 -9 0 -24 -7 -33 -16 -8 -9 -22 -14
-30 -11 -7 3 -16 1 -19 -6 -3 -9 -5 -9 -5 0 -1 6 3 14 9 18 5 3 7 12 3 20 -7
21 26 19 111 -6z m-214 -45 c0 -14 4 -22 10 -19 6 4 7 -1 3 -11 -5 -13 -7 -13
-13 -3 -14 27 -21 71 -10 64 5 -3 10 -17 10 -31z m-34 -6 c4 -7 3 -8 -4 -4 -6
4 -21 -3 -32 -14 -12 -12 -24 -20 -26 -17 -3 3 2 11 10 20 8 8 12 17 9 21 -4
3 3 6 15 6 11 0 24 -5 28 -12z m85 -14 c17 -18 19 -23 6 -18 -20 7 -22 -6 -4
-26 10 -12 9 -12 -6 0 -10 7 -15 20 -12 28 3 8 0 21 -6 28 -20 24 -4 15 22
-12z m194 16 c10 8 15 8 21 -1 4 -7 3 -9 -4 -5 -6 3 -13 2 -17 -4 -4 -6 -10
-8 -15 -5 -4 3 -13 -7 -18 -22 l-10 -28 1 32 c1 17 5 29 10 26 4 -2 7 2 8 9 0
10 2 11 6 0 4 -9 8 -10 18 -2z m-78 -19 c0 -11 -5 -17 -9 -15 -5 3 -6 9 -3 14
3 5 -5 11 -17 13 -20 4 -20 4 4 6 21 1 26 -3 25 -18z m-184 -30 c-4 -4 -11
-10 -14 -14 -4 -4 -6 4 -6 18 0 21 2 23 14 14 8 -7 10 -15 6 -18z m291 -3 c-3
-4 -11 -5 -19 -2 -11 5 -12 9 -2 19 12 13 31 -1 21 -17z m74 7 c4 -20 4 -20
-13 0 -14 17 -16 17 -11 3 7 -23 1 -23 -23 1 -18 18 -18 19 13 17 22 -1 32 -7
34 -21z m-411 -13 c-18 -20 -22 -33 -9 -31 14 3 45 -1 41 -5 -8 -7 -64 -17
-56 -10 4 4 -1 16 -10 27 -16 19 -16 20 -1 14 9 -3 22 1 28 9 7 8 15 14 18 14
3 0 -2 -8 -11 -18z m193 -4 c0 -18 -2 -20 -9 -8 -6 8 -7 18 -5 22 9 14 14 9
14 -14z m261 7 c5 4 6 -1 2 -10 -4 -12 -8 -13 -13 -5 -6 9 -9 9 -15 0 -9 -14
-4 -19 25 -25 12 -2 25 -7 29 -11 3 -4 -1 -5 -10 -2 -9 4 -20 -2 -27 -13 -18
-28 -29 -23 -27 14 2 38 17 77 23 59 2 -7 8 -10 13 -7z m-373 -20 c-3 -3 -9 2
-12 12 -6 14 -5 15 5 6 7 -7 10 -15 7 -18z m79 6 c0 -11 -6 -17 -14 -14 -7 3
-13 0 -13 -6 0 -6 -6 -11 -12 -11 -7 0 -1 11 12 24 31 30 29 30 27 7z m56 -1
c-3 -12 -8 -19 -11 -16 -5 6 5 36 12 36 2 0 2 -9 -1 -20z m116 -44 c0 -6 -3
-5 -6 2 -2 6 -10 9 -15 6 -7 -4 -8 -2 -4 4 4 7 2 12 -4 12 -6 0 -8 5 -4 12 8
12 35 -17 33 -36z m168 38 c-3 -3 -12 -4 -19 -1 -8 3 -5 6 6 6 11 1 17 -2 13
-5z m-400 -26 c-3 -8 -6 -5 -6 6 -1 11 2 17 5 13 3 -3 4 -12 1 -19z m136 2 c3
-11 1 -20 -4 -20 -5 0 -9 9 -9 20 0 11 2 20 4 20 2 0 6 -9 9 -20z m-276 -20
c-5 -21 18 -30 25 -9 2 6 12 0 23 -12 11 -12 15 -19 8 -16 -6 4 -14 1 -16 -5
-3 -8 -6 -6 -6 5 -1 14 -5 16 -18 9 -13 -7 -23 -4 -38 11 -11 11 -15 17 -9 14
7 -4 14 0 18 8 8 22 19 18 13 -5z m103 0 c-8 -5 -19 -10 -25 -10 -5 0 -3 5 5
10 8 5 20 10 25 10 6 0 3 -5 -5 -10z m230 -26 c0 -3 -7 -1 -15 6 -8 7 -15 17
-15 22 0 5 7 3 15 -6 8 -8 15 -18 15 -22z m-62 17 c6 -1 11 -4 11 -8 -3 -19 2
-27 10 -15 7 11 9 11 14 -1 7 -20 -16 -16 -41 6 -10 9 -21 14 -24 11 -3 -3 -9
-1 -12 4 -3 6 2 9 11 7 10 -2 24 -4 31 -4z m145 -8 c-4 -11 -8 -11 -21 -1 -13
11 -15 10 -9 -4 3 -10 2 -20 -2 -23 -12 -7 -21 21 -10 32 14 14 47 11 42 -4z
m139 -5 c-7 -7 -12 -8 -12 -2 0 14 12 26 19 19 2 -3 -1 -11 -7 -17z m58 13 c0
-5 -12 -16 -27 -26 l-28 -17 25 25 c28 29 30 30 30 18z m-404 -14 c23 8 16 -5
-8 -18 -13 -6 -20 -8 -16 -4 4 5 2 15 -4 24 -10 13 -10 14 1 4 7 -6 20 -9 27
-6z m30 -27 c0 -12 -4 -16 -9 -11 -5 5 -6 14 -3 20 10 15 12 14 12 -9z m202 1
c-6 -10 -18 -17 -25 -14 -10 4 -8 9 9 18 13 7 24 13 26 14 1 1 -3 -8 -10 -18z
m62 9 c0 -5 8 -11 18 -11 16 -1 16 -2 0 -6 -10 -2 -25 3 -34 11 -14 15 -14 16
0 16 9 0 16 -4 16 -10z m124 -6 c3 -8 2 -12 -4 -9 -6 3 -10 10 -10 16 0 14 7
11 14 -7z m-270 -3 c-9 -9 -34 -9 -34 -1 0 5 9 8 20 7 10 -1 17 -3 14 -6z
m240 -13 c-5 -7 -9 -17 -9 -22 0 -5 -5 -11 -10 -13 -6 -2 -11 6 -11 17 0 11 6
20 13 20 7 0 13 5 13 12 0 6 3 9 6 5 3 -3 2 -12 -2 -19z m-574 2 c0 -5 -2 -10
-4 -10 -3 0 -8 5 -11 10 -3 6 -1 10 4 10 6 0 11 -4 11 -10z m453 -10 c3 -11 1
-18 -4 -14 -5 3 -9 0 -9 -7 0 -7 -2 -10 -5 -8 -4 5 5 49 10 49 1 0 5 -9 8 -20z
m-403 -25 c0 -5 -5 -3 -10 5 -5 8 -10 20 -10 25 0 6 5 3 10 -5 5 -8 10 -19 10
-25z m75 12 c-11 -6 -24 -12 -28 -12 -4 0 -11 -6 -16 -13 -7 -11 -9 -10 -14 3
-4 9 -3 13 2 10 5 -3 12 -1 16 5 4 6 10 8 15 5 5 -3 11 -1 15 5 3 5 12 10 18
10 7 0 3 -6 -8 -13z m40 3 c3 -5 1 -10 -4 -10 -6 0 -11 5 -11 10 0 6 2 10 4
10 3 0 8 -4 11 -10z m219 -6 c5 -14 4 -15 -9 -4 -17 14 -19 20 -6 20 5 0 12
-7 15 -16z m121 -12 c-3 -3 -11 0 -18 7 -9 10 -8 11 6 5 10 -3 15 -9 12 -12z
m158 4 c3 3 13 2 22 -4 16 -8 16 -9 1 -15 -12 -5 -15 -3 -10 5 5 7 2 9 -9 5
-9 -3 -21 1 -29 11 -11 15 -11 15 3 5 9 -7 18 -10 22 -7z m-63 -6 c0 -5 -5
-10 -11 -10 -5 0 -7 5 -4 10 3 6 8 10 11 10 2 0 4 -4 4 -10z m-465 -10 c3 -5
1 -10 -4 -10 -6 0 -11 5 -11 10 0 6 2 10 4 10 3 0 8 -4 11 -10z m388 -11 c-4
-15 -8 -17 -14 -8 -6 11 4 28 18 29 0 0 -1 -9 -4 -21z m107 11 c0 -5 -2 -10
-4 -10 -3 0 -8 5 -11 10 -3 6 -1 10 4 10 6 0 11 -4 11 -10z m-526 -16 c3 -8 2
-12 -4 -9 -6 3 -10 10 -10 16 0 14 7 11 14 -7z m476 -4 c11 -11 20 -23 20 -27
0 -3 -3 -3 -7 0 -3 4 -13 1 -22 -6 -14 -10 -14 -10 -3 5 11 14 10 19 -10 32
-12 9 -17 16 -10 16 6 0 21 -9 32 -20z m-400 0 c8 -5 11 -10 5 -10 -5 0 -17 5
-25 10 -8 5 -10 10 -5 10 6 0 17 -5 25 -10z m62 2 c2 -4 44 -30 93 -58 378
-212 591 -341 615 -371 46 -59 11 -101 -73 -89 -61 9 -184 69 -184 90 0 9 4
16 9 16 4 0 8 -7 8 -15 0 -8 5 -15 11 -15 6 0 9 7 5 15 -6 18 19 21 30 3 4 -6
3 -8 -3 -5 -6 4 -13 1 -16 -7 -6 -16 19 -30 35 -19 7 3 8 1 4 -5 -4 -7 -1 -12
8 -12 8 0 16 -4 18 -10 5 -15 72 -17 74 -2 1 6 2 17 3 23 0 5 6 7 11 4 6 -3
10 3 10 14 0 15 -4 19 -17 14 -16 -6 -16 -4 2 18 11 13 13 18 5 12 -19 -18
-35 -16 -21 1 10 12 8 17 -7 25 -24 13 -32 -2 -21 -39 4 -14 8 -20 8 -15 1 11
21 -15 21 -29 0 -5 -11 3 -24 17 -18 20 -23 34 -20 57 4 25 2 29 -12 23 -11
-4 -15 -2 -11 4 8 12 -20 26 -34 18 -5 -4 -6 0 -3 8 6 16 -22 31 -38 20 -6 -3
-8 -1 -5 4 7 12 -48 42 -89 49 -22 4 -25 2 -20 -18 3 -13 3 -17 0 -9 -5 11 -8
11 -16 0 -7 -11 -8 -9 -4 5 5 13 2 17 -9 12 -8 -3 -15 -3 -15 0 0 2 12 9 26
14 l26 10 -23 18 c-30 23 -56 33 -62 24 -2 -4 -2 -1 0 7 2 8 -2 11 -12 7 -9
-3 -15 0 -15 9 0 8 -2 15 -4 15 -2 0 -12 3 -21 6 -10 4 -15 2 -13 -7 2 -8 -5
-14 -15 -14 -10 0 -22 -7 -27 -15 -6 -9 -10 -10 -10 -3 0 6 5 15 10 18 14 9
-31 44 -47 38 -7 -3 -13 -3 -13 0 0 12 31 15 42 4 7 -7 21 -18 31 -26 25 -20
21 4 -5 28 -25 24 -118 74 -125 68 -2 -3 -16 6 -30 19 -16 14 -33 22 -42 19
-8 -3 -12 -3 -8 1 4 4 2 13 -4 21 -8 8 -8 13 -1 13 6 0 12 -3 14 -8z m427 -5
c8 -10 7 -14 -2 -14 -8 0 -14 6 -14 14 0 7 1 13 2 13 2 0 8 -6 14 -13z m-598
-12 c5 4 6 -1 3 -9 -3 -8 -1 -23 5 -33 6 -10 11 -12 11 -5 0 6 5 12 11 12 8 0
8 -4 -1 -14 -15 -20 -35 -11 -37 17 -1 12 -7 23 -13 25 -5 2 -7 9 -3 15 5 8 8
8 11 -1 2 -7 8 -10 13 -7z m64 5 c3 -5 1 -10 -4 -10 -6 0 -11 5 -11 10 0 6 2
10 4 10 3 0 8 -4 11 -10z m415 0 c0 -5 -2 -10 -4 -10 -3 0 -8 5 -11 10 -3 6
-1 10 4 10 6 0 11 -4 11 -10z m90 6 c0 -2 -7 -7 -16 -10 -8 -3 -12 -2 -9 4 6
10 25 14 25 6z m195 -5 c3 -5 1 -12 -5 -16 -5 -3 -10 1 -10 9 0 18 6 21 15 7z
m-80 -22 c5 -5 -5 -4 -23 2 -17 6 -32 13 -32 16 0 7 43 -8 55 -18z m120 1 c10
-11 16 -20 13 -20 -3 0 -13 9 -23 20 -10 11 -16 20 -13 20 3 0 13 -9 23 -20z
m-770 0 c-3 -5 -12 -10 -18 -10 -7 0 -6 4 3 10 19 12 23 12 15 0z m699 2 c3
-5 -1 -9 -9 -9 -8 0 -12 4 -9 9 3 4 7 8 9 8 2 0 6 -4 9 -8z m-124 -23 c0 -6
-4 -7 -10 -4 -5 3 -10 11 -10 16 0 6 5 7 10 4 6 -3 10 -11 10 -16z m-455 -9
c10 -11 16 -20 13 -20 -3 0 -13 9 -23 20 -10 11 -16 20 -13 20 3 0 13 -9 23
-20z m35 16 c0 -3 -4 -8 -10 -11 -5 -3 -10 -1 -10 4 0 6 5 11 10 11 6 0 10 -2
10 -4z m534 -15 c3 -5 -6 -8 -20 -8 -19 0 -22 2 -13 8 18 11 26 11 33 0z m-94
-11 c0 -5 -5 -10 -11 -10 -5 0 -7 5 -4 10 3 6 8 10 11 10 2 0 4 -4 4 -10z m35
-1 c11 -16 1 -19 -13 -3 -7 8 -8 14 -3 14 5 0 13 -5 16 -11z m-471 -8 c3 -5
-2 -15 -12 -22 -15 -12 -16 -12 -5 2 7 9 10 19 6 22 -3 4 -4 7 0 7 3 0 8 -4
11 -9z m606 -11 c7 -14 7 -20 0 -20 -5 0 -10 7 -10 16 0 14 -3 14 -15 4 -13
-11 -14 -10 -9 4 8 22 21 20 34 -4z m-100 0 c0 -5 -2 -10 -4 -10 -3 0 -8 5
-11 10 -3 6 -1 10 4 10 6 0 11 -4 11 -10z m50 -5 c0 -11 -29 -11 -33 -1 -4 10
1 12 14 9 10 -3 19 -7 19 -8z m-456 -3 c3 -5 -1 -9 -9 -9 -8 0 -12 4 -9 9 3 4
7 8 9 8 2 0 6 -4 9 -8z m352 -1 c-3 -5 3 -11 14 -14 12 -3 20 -13 19 -24 -1
-15 -2 -15 -6 -2 -2 10 -13 19 -25 22 -16 5 -18 27 -2 27 3 0 3 -4 0 -9z
m-451 -21 c-3 -5 -12 -10 -18 -10 -7 0 -6 4 3 10 19 12 23 12 15 0z m551 -17
c-10 -10 -19 5 -10 18 6 11 8 11 12 0 2 -7 1 -15 -2 -18z m-506 7 c0 -5 -2
-10 -4 -10 -3 0 -8 5 -11 10 -3 6 -1 10 4 10 6 0 11 -4 11 -10z m-47 -38 c-3
-7 -6 -12 -7 -10 -1 2 -10 13 -20 25 -18 22 -18 22 7 10 14 -6 22 -17 20 -25z
m77 28 c0 -5 -5 -10 -11 -10 -5 0 -7 5 -4 10 3 6 8 10 11 10 2 0 4 -4 4 -10z
m470 -20 c8 -5 7 -9 -5 -13 -9 -4 -13 -3 -10 2 3 5 1 12 -5 16 -5 3 -10 12
-10 18 0 8 3 7 9 -2 5 -7 14 -17 21 -21z m-449 -13 c-10 -9 -11 -8 -5 6 3 10
9 15 12 12 3 -3 0 -11 -7 -18z m485 1 c-3 -13 -5 -25 -5 -28 -2 -10 -41 -9
-41 1 0 5 9 9 19 9 14 0 19 6 16 20 -2 11 0 20 6 20 5 0 7 -10 5 -22z m-521
-10 c-9 -6 -19 -7 -22 -4 -4 3 -1 6 6 6 7 0 9 4 6 10 -4 6 1 7 11 3 15 -6 15
-7 -1 -15z m430 12 c3 -5 1 -10 -4 -10 -6 0 -11 5 -11 10 0 6 2 10 4 10 3 0 8
-4 11 -10z m124 -13 c12 -15 12 -17 -3 -11 -9 3 -16 13 -16 22 0 8 1 13 3 11
1 -2 9 -12 16 -22z m121 9 c0 -2 -7 -6 -15 -10 -8 -3 -15 -1 -15 4 0 6 7 10
15 10 8 0 15 -2 15 -4z m-595 -16 c3 -6 -1 -7 -9 -4 -18 7 -21 14 -7 14 6 0
13 -4 16 -10z m520 -8 c-3 -3 -11 0 -18 7 -9 10 -8 11 6 5 10 -3 15 -9 12 -12z
m-584 -15 c-10 -9 -11 -8 -5 6 3 10 9 15 12 12 3 -3 0 -11 -7 -18z m114 13 c3
-5 1 -10 -4 -10 -6 0 -11 5 -11 10 0 6 2 10 4 10 3 0 8 -4 11 -10z m48 -4 c4
-11 1 -13 -11 -9 -13 5 -14 3 -5 -7 14 -15 6 -40 -13 -40 -11 0 -12 4 -5 19 6
10 7 21 3 25 -3 4 0 11 8 16 19 12 17 12 23 -4z m527 10 c0 -2 -7 -7 -16 -10
-8 -3 -12 -2 -9 4 6 10 25 14 25 6z m-40 -16 c0 -5 -7 -7 -15 -4 -8 4 -15 8
-15 10 0 2 7 4 15 4 8 0 15 -4 15 -10z m-570 -20 c-6 -11 -16 -20 -23 -19 -9
0 -9 2 1 6 6 2 12 11 12 19 0 8 5 14 10 14 7 0 7 -6 0 -20z m487 -1 c2 -16 -1
-19 -9 -11 -5 5 -7 15 -4 21 10 15 12 14 13 -10z m-453 3 c3 -5 -1 -9 -9 -9
-8 0 -12 4 -9 9 3 4 7 8 9 8 2 0 6 -4 9 -8z m79 -7 c-3 -9 -8 -14 -10 -11 -3
3 -2 9 2 15 9 16 15 13 8 -4z m469 -20 c3 -13 1 -22 -3 -19 -9 5 -13 44 -5 44
2 0 6 -11 8 -25z m-560 -17 c-7 -7 -12 -8 -12 -2 0 14 12 26 19 19 2 -3 -1
-11 -7 -17z m59 -1 c-10 -9 -11 -8 -5 6 3 10 9 15 12 12 3 -3 0 -11 -7 -18z
m549 -19 c0 -6 -7 -5 -15 2 -8 7 -15 17 -15 22 0 6 7 5 15 -2 8 -7 15 -17 15
-22z m257 0 c-1 -13 -7 -29 -13 -36 -10 -9 -12 -7 -10 11 2 22 13 47 21 47 2
0 3 -10 2 -22z m-767 6 c0 -8 -19 -13 -24 -6 -3 5 1 9 9 9 8 0 15 -2 15 -3z
m450 -4 c0 -5 -2 -10 -4 -10 -3 0 -8 5 -11 10 -3 6 -1 10 4 10 6 0 11 -4 11
-10z m-350 -10 c0 -5 -5 -10 -11 -10 -5 0 -7 5 -4 10 3 6 8 10 11 10 2 0 4 -4
4 -10z m20 -18 c-5 -2 -6 -11 -3 -20 6 -14 5 -15 -9 -2 -9 8 -12 17 -7 18 5 2
9 11 9 20 0 15 2 15 10 2 5 -9 6 -16 0 -18z m363 -3 c-8 -8 -13 -8 -17 0 -4 6
-2 11 4 11 6 0 8 6 4 13 -6 10 -4 10 7 0 9 -10 10 -16 2 -24z m-323 1 c0 -5
-5 -10 -11 -10 -5 0 -7 5 -4 10 3 6 8 10 11 10 2 0 4 -4 4 -10z m31 -34 c5 3
6 11 2 17 -4 7 0 6 10 -2 18 -14 23 -26 8 -16 -5 3 -12 1 -16 -5 -3 -5 -2 -10
3 -10 5 0 9 -6 9 -13 0 -7 -8 -13 -18 -13 -13 0 -15 4 -8 12 6 8 6 14 0 18 -5
3 -11 1 -13 -6 -3 -7 -7 -5 -11 6 -4 10 -3 15 3 11 6 -3 11 4 11 17 l2 23 4
-23 c2 -12 9 -20 14 -16z m-61 -34 c0 -1 -9 2 -20 8 -11 6 -20 15 -20 20 0 6
9 2 20 -7 11 -10 20 -19 20 -21z m120 34 c0 -3 -4 -8 -10 -11 -5 -3 -10 -1
-10 4 0 6 5 11 10 11 6 0 10 -2 10 -4z m369 -10 c-2 -2 -17 -6 -34 -10 -22 -5
-26 -4 -15 4 14 9 59 15 49 6z m367 -34 c134 -74 224 -134 340 -224 l62 -48
-34 -34 c-20 -20 -38 -52 -46 -80 -7 -25 -15 -46 -18 -46 -3 0 -115 55 -250
123 l-245 122 -3 50 c-4 71 16 124 57 152 19 13 42 23 51 23 10 0 48 -17 86
-38z m-719 -18 c-7 -7 -37 7 -37 17 0 6 9 5 21 -1 11 -7 19 -14 16 -16z m43
-54 c0 -4 -7 -7 -15 -7 -9 0 -14 6 -11 12 2 7 -1 19 -7 26 -7 7 -2 5 11 -5 12
-11 22 -22 22 -26z m1165 -308 c-2 -2 -12 5 -23 16 -11 11 -18 23 -15 26 3 3
14 -5 23 -17 10 -12 17 -23 15 -25z m-67 8 c-7 -10 -14 -17 -17 -15 -4 4 18
35 25 35 2 0 -1 -9 -8 -20z m78 -65 c-11 -8 -29 -15 -40 -14 -15 0 -10 4 14
13 46 18 48 18 26 1z m-86 -11 c0 -2 -7 -4 -15 -4 -8 0 -15 4 -15 10 0 5 7 7
15 4 8 -4 15 -8 15 -10z"/>
<path d="M1213 5735 c0 -18 19 -15 25 3 2 7 -3 12 -10 12 -8 0 -15 -7 -15 -15z"/>
<path d="M1755 5489 c-4 -6 -4 -13 0 -17 9 -10 65 -11 65 -2 0 12 -30 21 -42
13 -7 -3 -8 -1 -4 5 4 7 3 12 -3 12 -5 0 -13 -5 -16 -11z"/>
<path d="M1970 5379 c0 -6 -7 -9 -15 -5 -8 3 -15 2 -15 -3 0 -5 9 -11 20 -14
11 -3 18 -1 14 4 -3 5 0 9 5 9 6 0 11 -7 11 -15 0 -11 -7 -14 -23 -10 -16 4
-29 -1 -47 -21 -14 -15 -20 -24 -13 -21 6 4 13 1 16 -5 3 -10 8 -10 21 1 15
13 19 13 27 0 8 -11 9 -10 7 6 -5 32 40 21 79 -20 37 -38 63 -45 63 -17 0 15
-2 15 -11 2 -8 -12 -9 -9 -4 10 5 22 5 23 -8 8 -13 -16 -14 -16 -30 2 -9 11
-12 22 -8 25 5 3 12 -2 15 -11 5 -13 9 -14 21 -4 11 9 16 8 26 -8 7 -12 19
-18 28 -15 12 4 11 2 -2 -9 -18 -13 -18 -14 2 -32 12 -11 21 -14 21 -8 0 7 5
12 11 12 5 0 7 -4 4 -10 -3 -5 1 -10 9 -10 9 0 16 -5 16 -11 0 -8 4 -8 13 -1
12 10 17 12 38 12 5 0 7 5 3 11 -4 8 -9 7 -15 -2 -7 -11 -9 -11 -9 1 0 19 -37
43 -52 34 -6 -4 -8 -3 -5 3 4 6 -8 17 -26 24 -17 7 -34 15 -37 18 -3 4 -17 12
-32 20 -23 12 -30 12 -44 0 -16 -13 -17 -12 -12 9 4 15 2 22 -9 22 -8 0 -12
-4 -8 -9 3 -5 1 -12 -4 -16 -6 -3 -8 3 -6 15 2 12 -3 24 -16 30 -14 8 -19 7
-19 -1z m-16 -54 c-4 -8 -10 -12 -15 -9 -11 6 -2 24 11 24 5 0 7 -7 4 -15z
m267 -88 c-1 -12 -15 -9 -19 4 -3 6 1 10 8 8 6 -3 11 -8 11 -12z"/>
<path d="M1460 5580 c0 -5 5 -10 10 -10 6 0 10 5 10 10 0 6 -4 10 -10 10 -5 0
-10 -4 -10 -10z"/>
<path d="M1920 5030 c0 -5 8 -14 18 -19 9 -6 11 -11 5 -11 -7 0 -13 -7 -13
-15 0 -8 -5 -15 -12 -15 -6 0 -3 -8 7 -20 13 -15 22 -17 36 -9 25 13 24 34 -2
70 -20 29 -39 38 -39 19z m35 -61 c-10 -15 -25 -10 -19 6 4 8 10 12 15 9 5 -3
7 -10 4 -15z"/>
<path d="M1895 4940 c-3 -5 1 -10 9 -10 9 0 16 5 16 10 0 6 -4 10 -9 10 -6 0
-13 -4 -16 -10z"/>
<path d="M2453 5064 c3 -4 -4 -15 -16 -25 -12 -10 -16 -18 -9 -19 6 0 12 -5
12 -10 0 -6 -7 -6 -19 2 -18 11 -18 12 3 29 26 23 14 25 -19 3 -28 -18 -45
-69 -45 -135 0 -43 10 -59 36 -59 7 0 -1 25 -11 33 -6 5 -4 7 5 4 8 -2 16 -12
18 -23 2 -11 12 -26 23 -33 12 -7 18 -8 15 -2 -4 5 -2 12 4 16 5 3 11 18 11
33 2 24 2 25 6 4 3 -13 0 -29 -7 -36 -8 -11 -7 -18 5 -30 9 -9 20 -14 24 -11
5 2 17 -4 29 -15 13 -12 28 -17 38 -13 11 4 15 3 10 -5 -3 -6 -1 -14 5 -18 6
-3 15 0 20 7 7 12 9 11 9 -1 0 -18 48 -42 64 -33 6 3 8 2 4 -2 -7 -7 154 -95
175 -95 4 0 7 9 7 20 0 21 19 60 34 72 6 4 4 14 -5 25 -13 16 -12 17 2 5 14
-10 20 -10 33 3 21 22 21 31 -1 14 -15 -12 -16 -12 -11 2 5 12 -6 27 -32 48
-21 17 -43 31 -48 31 -6 0 -13 7 -16 16 -3 8 -10 12 -16 9 -5 -3 -10 -2 -10 3
0 13 -100 73 -111 66 -5 -3 -8 0 -7 6 2 6 -16 22 -39 37 -24 14 -43 20 -43 14
0 -6 5 -11 12 -11 6 0 9 -3 6 -6 -4 -3 -17 2 -30 10 -14 9 -28 13 -31 9 -4 -3
-7 2 -7 12 0 14 3 15 15 5 9 -7 18 -10 21 -7 3 3 -4 10 -15 17 -12 6 -21 8
-21 5 0 -4 -7 1 -16 9 -8 9 -19 14 -24 11 -5 -3 -11 -1 -15 5 -3 5 -11 10 -17
10 -6 0 -9 -3 -5 -6z m17 -44 c-8 -5 -17 -7 -19 -4 -3 3 1 9 9 14 8 5 17 7 19
4 3 -3 -1 -9 -9 -14z m10 -26 c0 -9 -5 -12 -12 -8 -7 5 -9 2 -5 -9 4 -11 2
-14 -8 -11 -11 5 -13 -2 -10 -33 2 -21 1 -32 -1 -25 -8 17 -27 15 -20 -3 3 -8
1 -15 -4 -15 -6 0 -10 7 -10 16 0 13 -3 14 -14 5 -10 -9 -15 -8 -19 4 -4 8 -1
14 6 12 7 -1 12 5 12 13 0 8 -5 14 -12 13 -7 -2 -10 4 -6 13 6 17 8 17 26 -18
10 -20 17 -24 28 -16 11 8 12 11 1 15 -10 4 -6 13 14 34 32 34 34 34 34 13z
m40 12 c0 -2 -7 -7 -16 -10 -8 -3 -12 -2 -9 4 6 10 25 14 25 6z m-90 -21 c0
-12 -19 -12 -23 0 -4 9 -1 12 9 8 7 -3 14 -7 14 -8z m77 -27 c-3 -8 -6 -5 -6
6 -1 11 2 17 5 13 3 -3 4 -12 1 -19z m-22 -7 c-3 -6 -11 -11 -16 -11 -5 0 -4
6 3 14 14 16 24 13 13 -3z m161 -6 c-3 -8 -1 -15 5 -15 6 0 7 -4 4 -10 -10
-16 -23 -11 -20 8 2 9 4 20 4 25 1 4 4 7 7 7 3 0 4 -7 0 -15z m-35 -17 c7 -13
7 -18 -1 -18 -6 0 -9 -4 -5 -9 3 -5 1 -12 -5 -16 -16 -10 -3 -23 22 -20 13 1
15 0 5 -2 -9 -2 -15 -7 -13 -11 11 -18 -45 -7 -61 12 l-18 21 23 -19 c12 -11
25 -16 29 -12 4 4 2 11 -6 15 -10 6 -9 10 4 15 9 3 13 11 9 17 -4 8 -9 7 -15
-2 -7 -11 -9 -10 -9 5 0 12 5 16 15 12 9 -3 15 0 15 8 0 9 -7 12 -19 9 -10 -3
-21 -1 -24 4 -3 5 6 9 19 8 14 0 30 -8 35 -17z m-118 -12 c3 3 3 -4 0 -17 -5
-16 -8 -19 -11 -9 -3 8 -10 22 -16 30 -9 13 -9 13 5 3 9 -7 18 -10 22 -7z m33
-23 c-10 -10 -19 5 -10 18 6 11 8 11 12 0 2 -7 1 -15 -2 -18z m190 -5 l19 -21
-27 18 c-29 18 -34 25 -20 25 5 0 17 -10 28 -22z m-215 -21 c-8 -10 -7 -19 4
-33 13 -18 14 -18 9 6 -5 20 -3 22 5 10 6 -8 11 -21 11 -27 0 -21 -19 -15 -36
13 -15 22 -15 27 -3 35 20 12 23 11 10 -4z m266 -2 c0 -8 -4 -15 -9 -15 -4 0
-8 7 -8 15 0 8 4 15 8 15 5 0 9 -7 9 -15z m52 -35 c-5 -4 -7 -14 -3 -23 5 -13
1 -16 -12 -14 -39 6 -46 18 -25 36 11 10 17 22 13 26 -4 4 3 2 15 -6 12 -7 18
-16 12 -19z m-251 0 c17 0 8 -13 -11 -16 -7 -1 -13 8 -14 20 -1 11 1 15 4 9 3
-7 12 -13 21 -13z m172 6 c0 -8 2 -21 5 -28 4 -9 -2 -14 -16 -15 -17 -2 -19 1
-10 10 15 15 15 40 -1 31 -7 -4 -8 -3 -4 4 10 17 26 15 26 -2z m-61 -5 c7 -5
9 -11 5 -14 -5 -3 -15 1 -22 9 -14 16 -5 18 17 5z m-67 -13 c-14 -14 -16 -32
-3 -24 5 4 20 2 33 -3 17 -7 18 -10 6 -10 -10 -1 -18 -6 -18 -13 0 -7 -10 -3
-22 9 -18 18 -19 24 -8 37 7 9 15 16 18 16 3 0 1 -5 -6 -12z m279 -35 c2 1 3
0 2 -2 -3 -4 -39 -11 -70 -13 -7 -1 -13 -4 -13 -7 0 -4 -9 -12 -21 -19 -12 -8
-18 -9 -15 -3 4 6 2 21 -4 33 -10 21 -10 22 4 4 13 -16 17 -17 36 -3 12 9 29
13 38 10 11 -5 13 -3 7 6 -6 10 -3 11 12 2 11 -6 22 -9 24 -8z m-209 -22 c-22
-22 -27 -19 -12 8 6 12 15 19 20 16 5 -3 2 -14 -8 -24z m65 12 c-4 -3 -1 -13
5 -21 10 -11 9 -16 -5 -24 -10 -5 -15 -13 -13 -17 3 -4 -1 -8 -8 -8 -8 0 -13
11 -12 26 2 31 13 51 28 51 6 0 8 -3 5 -7z m113 -23 c0 -5 -5 -10 -11 -10 -5
0 -7 5 -4 10 3 6 8 10 11 10 2 0 4 -4 4 -10z m-160 -10 c0 -5 -2 -10 -4 -10
-3 0 -8 5 -11 10 -3 6 -1 10 4 10 6 0 11 -4 11 -10z m118 -20 c-7 -11 -14 -16
-16 -10 -2 6 -10 6 -23 0 -10 -6 -19 -7 -19 -2 0 5 15 14 33 20 17 5 33 10 35
11 1 1 -3 -8 -10 -19z m36 -22 c-3 -4 -9 -8 -15 -8 -5 0 -9 4 -9 8 0 5 7 9 15
9 8 0 12 -4 9 -9z m-64 -17 c0 -5 -9 -7 -20 -4 -11 3 -20 7 -20 9 0 2 9 4 20
4 11 0 20 -4 20 -9z"/>
<path d="M2787 4823 c-11 -11 -8 -20 7 -20 8 0 12 6 9 14 -6 15 -7 15 -16 6z"/>
<path d="M2725 4750 c3 -5 11 -10 16 -10 6 0 7 5 4 10 -3 6 -11 10 -16 10 -6
0 -7 -4 -4 -10z"/>
<path d="M7651 5793 c-17 -18 -49 -85 -85 -178 -155 -398 -193 -489 -252 -605
-35 -69 -93 -172 -130 -230 -36 -58 -73 -120 -81 -138 -30 -70 7 -92 337 -202
439 -147 923 -280 1017 -280 51 0 54 2 84 43 38 51 212 405 267 542 96 237
212 613 212 685 0 21 -7 43 -14 50 -8 6 -102 31 -208 56 -233 53 -279 65 -715
188 -188 53 -356 96 -373 96 -21 0 -40 -9 -59 -27z m170 -72 c627 -177 934
-257 1060 -276 71 -11 74 -14 59 -76 -21 -90 -134 -426 -187 -559 -91 -226
-239 -530 -277 -568 -11 -11 -25 -11 -74 -2 -157 28 -952 264 -1155 342 -60
23 -77 34 -73 45 4 9 31 55 61 103 156 253 228 409 405 880 43 115 56 140 70
140 4 0 54 -13 111 -29z"/>
<path d="M3890 4404 c-32 -13 -50 -38 -50 -68 0 -42 23 -81 98 -170 78 -93
128 -126 452 -304 379 -207 487 -265 800 -427 157 -81 312 -162 345 -180 33
-18 114 -60 180 -95 66 -35 252 -135 413 -222 161 -88 309 -166 328 -174 49
-21 96 -4 157 55 87 83 124 193 85 253 -16 25 -202 130 -298 170 -30 12 -95
45 -145 73 -242 138 -560 307 -865 460 -85 43 -342 175 -570 293 -480 249
-555 285 -652 312 -71 20 -250 35 -278 24z m92 -63 c-12 -7 -62 -4 -62 5 0 2
17 4 38 4 23 0 32 -3 24 -9z m-75 -23 c-3 -8 -6 -5 -6 6 -1 11 2 17 5 13 3 -3
4 -12 1 -19z m156 15 c-7 -2 -21 -2 -30 0 -10 3 -4 5 12 5 17 0 24 -2 18 -5z
m77 -11 c0 -5 -9 -17 -20 -27 -18 -17 -20 -17 -14 -2 3 9 10 17 16 17 5 0 6 5
3 10 -3 6 -1 10 4 10 6 0 11 -4 11 -8z m243 -98 c72 -36 206 -106 297 -154
319 -169 567 -299 825 -430 388 -198 527 -271 665 -349 68 -39 129 -72 134
-74 5 -2 -5 -22 -22 -45 -16 -23 -42 -76 -57 -117 -15 -41 -30 -75 -32 -75 -2
0 -91 47 -196 104 -106 57 -266 143 -357 191 -91 49 -250 134 -355 190 -104
56 -355 188 -556 293 -202 106 -418 220 -480 255 -130 73 -133 78 -99 169 25
69 55 108 81 108 11 0 79 -30 152 -66z m-428 26 c10 -11 16 -20 13 -20 -3 0
-13 9 -23 20 -10 11 -16 20 -13 20 3 0 13 -9 23 -20z m39 -46 c3 -8 2 -12 -4
-9 -6 3 -10 10 -10 16 0 14 7 11 14 -7z m79 -14 c-3 -12 -8 -19 -11 -16 -5 6
5 36 12 36 2 0 2 -9 -1 -20z m-13 -52 c0 -16 -3 -19 -11 -11 -6 6 -8 16 -5 22
11 17 16 13 16 -11z m2350 -978 c11 -8 9 -9 -11 -5 -22 5 -30 1 -47 -27 -12
-18 -22 -29 -22 -25 0 15 41 67 53 67 7 0 19 -5 27 -10z m80 -35 c17 -9 30
-18 30 -21 0 -4 -59 23 -69 32 -10 9 13 3 39 -11z m76 -41 c18 -14 18 -14 -6
-3 -31 14 -36 19 -24 19 6 0 19 -7 30 -16z m55 -24 c10 -6 19 -16 19 -23 0 -8
-3 -9 -8 -1 -4 6 -16 16 -27 22 -25 14 -11 16 16 2z m-330 -53 c-10 -9 -11 -8
-5 6 3 10 9 15 12 12 3 -3 0 -11 -7 -18z m340 -41 c-14 -36 -22 -33 -9 5 6 16
12 28 14 26 3 -2 0 -16 -5 -31z m-346 -5 c0 -16 -3 -27 -7 -24 -13 7 -7 53 6
53 1 0 1 -13 1 -29z m50 -51 c3 -6 -1 -7 -9 -4 -18 7 -21 14 -7 14 6 0 13 -4
16 -10z m265 -3 c0 -2 -10 -12 -22 -23 l-23 -19 19 23 c18 21 26 27 26 19z
m-195 -37 c3 -6 -1 -7 -9 -4 -18 7 -21 14 -7 14 6 0 13 -4 16 -10z m60 -30 c3
-6 -1 -7 -9 -4 -18 7 -21 14 -7 14 6 0 13 -4 16 -10z m42 -16 c-3 -3 -12 -4
-19 -1 -8 3 -5 6 6 6 11 1 17 -2 13 -5z"/>
<path d="M1126 4360 c-60 -24 -110 -70 -142 -132 -29 -57 -111 -273 -299 -783
-79 -214 -226 -613 -328 -885 -102 -272 -191 -522 -198 -555 -16 -78 -14 -237
5 -298 27 -91 120 -182 235 -234 85 -38 793 -272 1341 -442 107 -34 208 -70
223 -82 55 -40 156 -70 226 -68 42 1 95 -6 145 -20 221 -59 371 0 469 186 72
137 341 850 611 1618 121 342 171 503 181 575 7 59 -9 140 -41 203 -14 29 -30
82 -35 119 -10 78 -35 132 -86 189 -42 47 -99 78 -210 115 -53 18 -88 37 -110
59 -46 47 -118 69 -202 61 -60 -6 -90 -1 -291 48 -124 31 -324 83 -445 116
-898 245 -938 253 -1049 210z m267 -74 c61 -14 229 -57 372 -96 411 -113 646
-175 844 -225 102 -25 187 -47 189 -49 2 -2 -5 -21 -16 -43 -32 -64 -88 -210
-222 -587 -71 -199 -245 -680 -388 -1071 -143 -390 -264 -722 -267 -737 -4
-16 -10 -28 -14 -28 -4 0 -106 31 -227 69 -303 95 -864 271 -1074 338 -96 31
-183 56 -194 57 -27 1 -45 -30 -26 -48 14 -13 925 -312 1497 -491 7 -2 13 -34
15 -84 3 -77 2 -81 -17 -75 -53 16 -799 261 -1110 365 -192 64 -356 114 -363
112 -20 -8 -14 -41 10 -58 17 -12 1368 -464 1494 -500 1 0 5 -19 9 -41 l6 -42
-118 38 c-1039 334 -1291 418 -1360 450 -96 45 -168 108 -196 170 -16 36 -20
64 -18 155 0 62 7 131 15 156 7 24 149 409 316 854 166 446 346 929 401 1074
107 288 124 318 205 346 56 20 110 18 237 -9z m1594 -383 c-4 -3 -26 -7 -50
-7 l-42 -1 -39 -80 c-23 -47 -39 -94 -38 -114 0 -20 -3 -29 -8 -22 -4 8 -17
-12 -34 -54 -15 -37 -25 -70 -22 -72 3 -3 -2 -12 -10 -21 -9 -8 -14 -25 -11
-38 2 -13 1 -21 -4 -19 -11 7 -32 -62 -23 -76 5 -8 3 -9 -6 -4 -10 6 -11 1 -6
-21 4 -18 3 -24 -2 -16 -12 18 -25 -28 -16 -55 5 -15 4 -15 -5 -3 -7 10 -11
11 -11 3 0 -7 1 -14 2 -15 2 -2 -5 -14 -15 -28 -23 -32 -22 -50 3 -45 23 4 32
-6 21 -24 -6 -10 -10 -9 -14 3 -9 23 -34 9 -46 -26 -14 -40 -14 -51 1 -42 7 4
8 3 4 -5 -4 -6 -11 -9 -16 -6 -4 3 -10 -3 -14 -13 -3 -9 -12 -35 -20 -57 -20
-50 -20 -55 -1 -55 8 0 15 -5 15 -10 0 -7 -6 -7 -20 0 -15 8 -20 8 -20 -2 0
-18 51 -59 64 -51 6 3 6 0 -1 -7 -10 -11 -16 -11 -31 3 -10 9 -22 14 -27 10
-4 -5 -5 -3 -1 4 3 6 3 14 -2 17 -8 5 -19 -21 -37 -83 -5 -15 -3 -21 3 -17 6
4 8 -2 5 -15 -4 -15 -8 -17 -14 -8 -6 11 -9 10 -13 -1 -2 -8 -12 -37 -22 -64
-14 -38 -15 -52 -6 -67 9 -13 9 -20 0 -25 -7 -4 -8 -3 -4 4 4 7 3 12 -3 12
-19 0 -22 -20 -5 -47 10 -18 11 -22 1 -10 -20 24 -23 22 -40 -27 -11 -33 -12
-47 -4 -56 9 -9 8 -11 -3 -8 -9 2 -14 -4 -14 -14 1 -10 -1 -16 -5 -13 -4 2
-27 -48 -50 -112 -35 -93 -41 -117 -30 -124 11 -7 10 -9 -3 -9 -10 0 -18 -4
-18 -9 0 -5 -5 -22 -12 -38 -6 -15 -12 -30 -12 -33 -1 -3 -5 -11 -9 -17 -5 -8
-3 -13 7 -13 25 0 14 -38 -12 -45 -17 -4 -22 -10 -17 -23 3 -9 3 -13 -1 -9
-11 10 -52 -96 -42 -109 4 -6 2 -11 -7 -11 -8 0 -15 4 -15 8 0 4 29 83 64 175
105 278 167 449 321 874 225 625 307 834 339 871 11 14 29 19 63 19 25 0 43
-3 40 -7z m48 -13 c5 -8 -154 -459 -254 -720 -16 -41 -55 -145 -86 -230 -59
-160 -202 -547 -235 -635 -10 -27 -35 -95 -55 -150 -20 -55 -39 -102 -42 -105
-9 -8 5 35 63 193 49 133 53 150 39 164 -13 12 -18 13 -31 3 -12 -11 -13 -10
-8 4 3 9 12 16 19 16 7 0 16 6 18 13 3 6 6 2 6 -10 2 -42 17 -31 35 25 10 31
25 72 33 90 15 35 11 68 -8 56 -8 -4 -7 -9 2 -15 10 -6 10 -9 2 -9 -18 0 -27
21 -12 31 8 4 19 3 28 -4 12 -10 14 -8 9 11 -4 12 -2 20 2 17 15 -9 22 15 9
31 -10 12 -10 15 1 12 9 -2 27 30 51 92 43 109 46 122 22 114 -15 -5 -15 -4
-3 4 8 6 18 8 22 6 4 -3 8 -1 8 5 0 5 3 18 7 28 6 16 5 17 -12 3 -16 -13 -18
-13 -13 0 2 8 11 15 19 15 16 0 52 82 45 102 -3 7 -2 13 3 13 9 0 91 206 91
228 0 7 -5 10 -12 6 -7 -4 -8 -3 -4 5 4 6 12 8 18 5 6 -4 8 7 5 30 -4 31 -3
35 9 25 17 -14 19 2 2 20 -11 10 -9 11 7 5 11 -4 17 -4 13 1 -4 4 -4 13 1 19
14 16 61 146 63 172 1 12 6 20 10 18 4 -3 9 2 9 10 2 24 4 29 16 51 6 11 19
47 28 80 10 33 20 65 24 70 3 6 11 25 17 43 10 27 9 34 -5 42 -15 9 -15 9 1
10 9 0 20 -4 23 -10z m-72 -35 c-3 -9 -8 -14 -10 -11 -3 3 -2 9 2 15 9 16 15
13 8 -4z m-23 -41 c0 -3 -7 -1 -15 6 -8 7 -15 17 -15 22 0 5 7 3 15 -6 8 -8
15 -18 15 -22z m248 -10 c164 -47 262 -142 262 -252 0 -56 -24 -130 -237 -717
-101 -280 -231 -640 -288 -800 -114 -321 -203 -552 -234 -614 -32 -63 -78
-108 -127 -127 -54 -21 -136 -15 -269 19 -104 27 -100 17 -58 157 26 90 84
249 325 900 83 223 200 538 260 700 60 162 143 387 185 500 42 113 80 215 84
228 10 26 23 27 97 6z m-278 -24 c0 -5 -2 -10 -4 -10 -3 0 -8 5 -11 10 -3 6
-1 10 4 10 6 0 11 -4 11 -10z m11 -23 c-10 -9 -11 -8 -5 6 3 10 9 15 12 12 3
-3 0 -11 -7 -18z m-41 9 c0 -2 -7 -7 -16 -10 -8 -3 -12 -2 -9 4 6 10 25 14 25
6z m1 -54 c-7 -2 -18 1 -23 6 -8 8 -4 9 13 5 13 -4 18 -8 10 -11z m9 -32 c-20
-13 -33 -13 -25 0 3 6 14 10 23 10 15 0 15 -2 2 -10z m30 -45 c0 -12 -19 -12
-23 0 -4 9 -1 12 9 8 7 -3 14 -7 14 -8z m-116 -30 c3 -8 1 -15 -4 -15 -6 0
-10 7 -10 15 0 8 2 15 4 15 2 0 6 -7 10 -15z m34 -21 c0 -17 -3 -22 -8 -13 -5
6 -6 18 -3 26 8 19 11 16 11 -13z m27 16 c3 -5 1 -10 -4 -10 -6 0 -11 5 -11
10 0 6 2 10 4 10 3 0 8 -4 11 -10z m32 -32 c0 -13 -1 -17 -4 -10 -3 6 -10 9
-16 5 -7 -4 -6 1 2 10 17 21 17 21 18 -5z m-93 -46 c-3 -16 -1 -21 7 -16 8 4
9 3 5 -5 -4 -6 -12 -9 -17 -6 -5 4 -9 2 -9 -4 0 -5 10 -11 23 -13 20 -3 20 -4
-5 -9 -15 -3 -27 -3 -26 0 3 25 -3 33 -16 22 -11 -9 -16 -9 -22 0 -4 7 -3 9 3
6 18 -11 46 29 38 54 -6 19 -5 20 8 8 8 -8 13 -24 11 -37z m-14 -82 c-8 -5
-19 -10 -25 -10 -5 0 -3 5 5 10 8 5 20 10 25 10 6 0 3 -5 -5 -10z m40 -15 c0
-8 -8 -15 -17 -14 -11 0 -13 3 -5 6 6 2 10 9 6 14 -3 5 0 9 5 9 6 0 11 -7 11
-15z m-80 -3 c0 -5 -7 -9 -15 -9 -8 0 -15 4 -15 9 0 4 7 8 15 8 8 0 15 -4 15
-8z m775 -118 c10 -72 -7 -131 -176 -609 -273 -776 -547 -1506 -601 -1605 -97
-175 -203 -215 -413 -154 -96 28 -105 34 -105 75 l0 26 83 -19 c197 -47 319 3
358 147 6 22 52 144 101 270 50 127 148 392 220 590 71 198 157 434 190 525
65 178 186 517 248 695 21 61 44 124 50 140 l12 30 14 -30 c7 -16 16 -53 19
-81z m-785 82 c0 -2 -7 -7 -16 -10 -8 -3 -12 -2 -9 4 6 10 25 14 25 6z m51
-13 c13 -16 12 -17 -3 -4 -17 13 -22 21 -14 21 2 0 10 -8 17 -17z m3 -41 c2
-4 -5 -9 -17 -9 -17 -2 -19 0 -7 7 18 12 18 12 24 2z m-4 -62 c0 -12 -29 -20
-35 -9 -4 5 -1 8 7 7 7 -2 12 3 10 10 -1 8 2 11 8 7 5 -3 10 -10 10 -15z
m-107 -5 c-3 -9 -8 -14 -10 -11 -3 3 -2 9 2 15 9 16 15 13 8 -4z m44 -18 c0
-8 -6 -14 -14 -14 -17 0 -17 14 0 20 6 3 12 6 13 6 0 1 1 -5 1 -12z m38 -17
c-3 -5 -12 -10 -18 -10 -7 0 -6 4 3 10 19 12 23 12 15 0z m5 -24 c0 -11 -19
-15 -25 -6 -3 5 1 10 9 10 9 0 16 -2 16 -4z m-30 -20 c0 -3 -4 -8 -10 -11 -5
-3 -10 -1 -10 4 0 6 5 11 10 11 6 0 10 -2 10 -4z m-107 -36 c3 -11 1 -18 -4
-14 -5 3 -9 12 -9 20 0 20 7 17 13 -6z m25 -8 c7 -21 7 -29 -2 -29 -6 0 -11
13 -12 29 -1 35 1 35 14 0z m24 -4 c-7 -7 -12 -8 -12 -2 0 6 3 14 7 17 3 4 9
5 12 2 2 -3 -1 -11 -7 -17z m46 -15 c-6 -7 -12 -13 -13 -13 -2 0 -5 6 -8 13
-3 7 3 13 14 13 13 0 15 -3 7 -13z m-20 -53 c-7 -11 -14 -17 -17 -15 -2 3 1
11 7 18 7 8 8 18 4 22 -4 5 -1 5 5 1 10 -5 10 -11 1 -26z m-73 -31 c-4 -5 -12
-9 -18 -8 -9 0 -8 2 1 6 6 2 9 10 6 15 -4 7 -2 8 5 4 6 -4 9 -12 6 -17z m10
-49 c17 -8 16 -8 -7 -7 -16 1 -28 5 -28 9 0 10 9 9 35 -2z m-68 -115 c0 -8 -4
-12 -9 -9 -5 3 -6 10 -3 15 9 13 12 11 12 -6z m43 -10 c0 -2 -10 -9 -22 -15
-22 -11 -22 -10 -4 4 21 17 26 19 26 11z m-65 -13 c-2 -2 6 -13 18 -24 l22
-20 -24 15 c-13 9 -28 14 -35 13 -6 -2 -8 -1 -3 1 4 3 5 8 3 12 -3 4 1 8 9 8
8 0 13 -2 10 -5z m1 -44 c4 -6 3 -8 -3 -5 -6 4 -15 -5 -21 -18 -7 -14 -17 -25
-24 -25 -9 0 -10 3 -2 8 6 4 16 17 23 30 13 25 17 27 27 10z m-2 -83 c-3 -13
-10 -22 -16 -19 -5 3 -5 11 2 19 7 9 8 15 1 19 -6 4 -7 14 -4 22 10 26 25 -10
17 -41z m31 45 c3 -6 -1 -7 -9 -4 -18 7 -21 14 -7 14 6 0 13 -4 16 -10z m-49
-105 c0 -14 -4 -25 -8 -25 -10 0 -10 13 -2 34 9 23 12 20 10 -9z m-29 -25 c-1
-10 -4 -17 -8 -14 -4 2 -7 13 -6 24 1 10 4 17 8 14 4 -2 7 -13 6 -24z m-6 -83
c-10 -9 -11 -8 -5 6 3 10 9 15 12 12 3 -3 0 -11 -7 -18z m-41 4 c0 -5 -7 -12
-16 -15 -14 -5 -15 -4 -4 9 14 17 20 19 20 6z m14 -29 c3 -5 -1 -9 -9 -9 -8 0
-12 4 -9 9 3 4 7 8 9 8 2 0 6 -4 9 -8z m-34 -12 c0 -5 -2 -10 -4 -10 -3 0 -8
5 -11 10 -3 6 -1 10 4 10 6 0 11 -4 11 -10z m-10 -24 c0 -3 -4 -8 -10 -11 -5
-3 -10 -1 -10 4 0 6 5 11 10 11 6 0 10 -2 10 -4z m54 -11 c-10 -8 -23 -15 -28
-15 -6 0 -1 7 10 15 10 8 23 15 28 15 6 0 1 -7 -10 -15z m-57 -37 c-3 -8 -6
-5 -6 6 -1 11 2 17 5 13 3 -3 4 -12 1 -19z m-13 -14 c3 -8 2 -12 -4 -9 -6 3
-10 10 -10 16 0 14 7 11 14 -7z m-54 -29 c0 -8 -4 -15 -10 -15 -5 0 -7 7 -4
15 4 8 8 15 10 15 2 0 4 -7 4 -15z m47 -17 c0 -13 -1 -17 -4 -10 -3 6 -10 9
-16 5 -7 -4 -6 1 2 10 17 21 17 21 18 -5z m34 -25 c13 -16 12 -17 -3 -4 -10 7
-18 15 -18 17 0 8 8 3 21 -13z m-73 -18 c-3 -3 -9 2 -12 12 -6 14 -5 15 5 6 7
-7 10 -15 7 -18z m57 5 c3 -5 1 -10 -4 -10 -6 0 -11 5 -11 10 0 6 2 10 4 10 3
0 8 -4 11 -10z m-14 -59 c-14 -26 -14 -34 1 -25 7 4 8 3 4 -4 -13 -21 -28 -13
-22 11 4 17 1 24 -10 24 -9 0 -13 -6 -9 -16 3 -11 0 -10 -10 3 -12 15 -12 22
-3 27 7 5 15 5 18 1 11 -15 30 -11 31 6 0 9 3 12 5 5 3 -7 1 -21 -5 -32z m-63
-42 c-1 -18 -4 -25 -9 -18 -4 6 -14 9 -23 6 -9 -4 -16 -2 -16 3 0 6 10 10 21
10 16 0 20 5 16 20 -3 11 -1 18 3 15 5 -3 8 -19 8 -36z m-54 -41 c-4 -6 0 -14
7 -19 11 -7 10 -9 -3 -9 -13 0 -18 8 -18 26 0 14 4 23 10 19 6 -4 7 -11 4 -17z
m56 -2 c0 -2 -6 -9 -13 -15 -10 -8 -14 -7 -14 4 0 8 6 15 14 15 7 0 13 -2 13
-4z m-40 -46 c0 -5 -2 -10 -4 -10 -3 0 -8 5 -11 10 -3 6 -1 10 4 10 6 0 11 -4
11 -10z m10 -55 c-5 -6 -7 -15 -3 -18 3 -4 1 -7 -5 -7 -15 0 -16 17 -2 25 8 5
7 12 -2 23 -12 15 -11 16 5 3 12 -9 14 -17 7 -26z m42 10 c-2 -14 -8 -28 -13
-30 -9 -6 -4 28 6 45 10 16 13 11 7 -15z m-92 -19 c0 -3 -4 -8 -10 -11 -5 -3
-10 -1 -10 4 0 6 5 11 10 11 6 0 10 -2 10 -4z m7 -38 c-3 -8 -6 -5 -6 6 -1 11
2 17 5 13 3 -3 4 -12 1 -19z m39 -2 c18 -18 19 -32 1 -17 -8 6 -17 8 -20 4 -4
-3 -7 1 -7 10 0 21 7 21 26 3z m-65 -31 c3 2 5 -4 5 -14 0 -12 -5 -17 -15 -13
-11 4 -13 1 -7 -14 6 -15 5 -17 -5 -6 -10 9 -10 15 -1 24 8 8 8 17 1 32 -9 19
-9 19 4 4 8 -10 16 -16 18 -13z m26 -22 c-3 -10 -5 -4 -5 12 0 17 2 24 5 18 2
-7 2 -21 0 -30z m78 20 c-3 -10 -29 -79 -56 -153 -49 -131 -68 -173 -54 -117
4 16 3 27 -3 27 -5 0 -13 7 -16 16 -5 14 -4 15 7 5 11 -8 17 -8 24 1 13 16 56
129 74 191 7 26 17 47 22 47 5 0 6 -8 2 -17z m-145 -27 c0 -3 -4 -8 -10 -11
-5 -3 -10 -1 -10 4 0 6 5 11 10 11 6 0 10 -2 10 -4z m110 0 c0 -2 -8 -10 -17
-17 -16 -13 -17 -12 -4 4 13 16 21 21 21 13z m-102 -44 c-10 -2 -21 -14 -24
-28 -3 -13 -10 -24 -15 -24 -5 0 -6 8 -2 18 10 28 35 52 47 44 7 -4 5 -8 -6
-10z m-64 -29 c-7 -16 -14 -33 -14 -39 0 -6 -13 -44 -30 -83 -16 -40 -29 -76
-28 -79 1 -4 -3 -17 -10 -29 -8 -15 -9 -23 -2 -23 5 0 10 -4 10 -10 0 -5 -6
-7 -14 -4 -11 4 -14 -1 -12 -20 2 -14 0 -23 -5 -21 -11 7 -22 -32 -13 -46 4
-8 3 -9 -4 -5 -13 8 -28 -37 -17 -53 3 -6 2 -11 -4 -11 -13 0 -50 -119 -49
-159 1 -17 4 -31 7 -31 3 0 4 -27 3 -60 -2 -33 0 -60 5 -60 4 0 8 -15 7 -32
-1 -42 21 -128 38 -144 7 -7 25 -16 41 -19 23 -6 26 -5 21 11 -5 15 -4 16 4 4
6 -8 9 -17 6 -21 -2 -4 10 -12 26 -18 36 -12 38 -4 15 97 -17 75 -26 188 -15
175 4 -4 10 -42 14 -83 3 -41 13 -104 20 -140 8 -36 13 -67 11 -69 -3 -2 -38
8 -78 23 -98 36 -107 55 -127 269 -11 126 -9 140 35 272 22 65 40 116 125 348
17 48 36 87 40 87 5 0 2 -12 -6 -27z m111 -3 c4 -6 11 -7 17 -4 7 4 8 2 4 -5
-6 -9 -12 -9 -24 1 -10 7 -19 14 -21 15 -2 2 1 3 7 3 6 0 14 -5 17 -10z m-105
-58 c-6 -2 -8 -8 -5 -12 3 -5 1 -11 -5 -15 -11 -7 -12 0 -3 33 4 18 8 20 14
10 5 -7 4 -14 -1 -16z m79 -3 c-16 -10 -23 -4 -14 10 3 6 11 8 17 5 6 -4 5 -9
-3 -15z m-25 -17 c2 -4 0 -14 -6 -22 -8 -12 -9 -12 -5 2 3 9 1 19 -6 22 -9 3
-9 5 0 5 6 1 14 -3 17 -7z m15 -86 c-3 -3 -11 5 -18 17 -13 21 -12 21 5 5 10
-10 16 -20 13 -22z m-95 -4 c-11 -10 -19 -24 -17 -32 4 -13 3 -13 -6 0 -8 11
-5 19 12 32 29 23 38 23 11 0z m26 -32 c0 -5 -5 -10 -11 -10 -5 0 -7 5 -4 10
3 6 8 10 11 10 2 0 4 -4 4 -10z m50 2 c0 -4 -9 -8 -20 -9 -11 -1 -20 2 -20 5
0 4 9 8 20 9 11 1 20 -2 20 -5z m-26 -178 c-30 -93 -59 -196 -63 -229 -8 -58
-9 -58 -10 -15 0 25 5 65 13 90 24 81 27 102 16 95 -5 -3 -18 -1 -27 5 -16 9
-15 10 5 5 13 -4 22 -2 22 5 0 6 4 9 9 6 5 -3 18 24 31 60 18 55 20 68 9 75
-8 5 -17 9 -21 9 -4 0 3 10 15 23 26 27 38 26 13 -2 -14 -15 -14 -19 -3 -24
10 -4 18 7 27 34 7 21 15 38 16 36 2 -2 -21 -80 -52 -173z m-60 145 c-2 -4 1
-9 8 -11 7 -3 5 -7 -6 -11 -9 -4 -15 -3 -11 2 3 6 -3 14 -12 20 -16 9 -16 10
4 8 12 0 20 -4 17 -8z m26 -64 c-7 -8 -17 -15 -23 -15 -6 0 -2 7 9 15 25 19
30 19 14 0z m-55 -15 c3 -5 2 -10 -4 -10 -5 0 -13 5 -16 10 -3 6 -2 10 4 10 5
0 13 -4 16 -10z m75 -20 c0 -5 -5 -10 -11 -10 -5 0 -7 5 -4 10 3 6 8 10 11 10
2 0 4 -4 4 -10z m-30 -27 c0 -3 -7 -3 -15 1 -8 3 -15 0 -15 -6 0 -6 -3 -9 -6
-5 -11 10 6 26 21 20 8 -3 15 -7 15 -10z m-60 -23 c-8 -5 -17 -7 -19 -4 -3 3
1 9 9 14 8 5 17 7 19 4 3 -3 -1 -9 -9 -14z m72 3 c-6 -2 -9 -10 -6 -15 4 -7 2
-8 -5 -4 -13 9 -5 26 12 25 9 0 8 -2 -1 -6z m-104 -68 c-3 -3 -9 2 -12 12 -6
14 -5 15 5 6 7 -7 10 -15 7 -18z m-35 -55 c-10 -11 -19 -20 -20 -20 -2 0 -3 9
-3 20 0 13 7 20 20 20 19 0 19 -1 3 -20z m37 -14 c0 -2 -7 -7 -16 -10 -8 -3
-12 -2 -9 4 6 10 25 14 25 6z m20 -34 c0 -5 -7 -9 -15 -9 -8 0 -12 4 -9 9 3 4
9 8 15 8 5 0 9 -4 9 -8z m-45 -21 c-3 -2 0 -10 6 -18 17 -20 2 -16 -20 6 -19
19 -19 20 -1 18 11 -1 17 -3 15 -6z m25 -51 c0 -5 -5 -10 -11 -10 -5 0 -7 5
-4 10 3 6 8 10 11 10 2 0 4 -4 4 -10z m21 -43 c-10 -9 -11 -8 -5 6 3 10 9 15
12 12 3 -3 0 -11 -7 -18z m-63 5 c15 12 16 11 3 -4 -14 -19 -32 -15 -30 5 0 8
2 8 6 -1 4 -10 8 -10 21 0z m324 -31 c128 -27 182 -27 277 4 22 7 23 5 17 -21
-30 -118 -89 -161 -204 -150 -37 3 -98 14 -137 24 l-70 18 -7 45 c-12 83 -10
111 10 105 9 -2 61 -14 114 -25z m-293 -24 c-13 -13 -26 -21 -29 -19 -5 4 38
42 48 42 3 0 -6 -10 -19 -23z m0 -84 c-1 -22 -2 -23 -6 -8 -3 11 -10 23 -17
27 -7 5 -5 8 7 8 12 0 17 -7 16 -27z m35 -29 c3 -8 2 -12 -4 -9 -6 3 -10 10
-10 16 0 14 7 11 14 -7z m-17 -46 c-3 -8 -6 -5 -6 6 -1 11 2 17 5 13 3 -3 4
-12 1 -19z m34 -5 c13 -16 12 -17 -3 -4 -17 13 -22 21 -14 21 2 0 10 -8 17
-17z"/>
<path d="M2230 2135 c0 -8 2 -15 4 -15 2 0 6 7 10 15 3 8 1 15 -4 15 -6 0 -10
-7 -10 -15z"/>
<path d="M9285 3869 c-521 -110 -1344 -337 -1397 -385 -35 -32 -27 -79 101
-604 28 -113 75 -317 106 -455 71 -321 84 -374 97 -408 15 -38 54 -67 92 -67
95 0 681 145 1140 281 352 105 436 145 436 210 0 57 -160 778 -224 1009 -41
150 -96 311 -125 367 -39 78 -70 85 -226 52z m143 -58 c52 -33 211 -613 327
-1194 36 -186 37 -180 -37 -210 -193 -77 -1046 -312 -1351 -373 -76 -14 -90
-15 -102 -3 -7 8 -25 70 -40 139 -49 236 -134 605 -210 914 -42 170 -75 321
-73 334 3 24 14 29 163 74 409 124 841 238 1150 303 120 26 153 29 173 16z"/>
<path d="M8730 3294 c-217 -57 -405 -108 -417 -113 -27 -12 -30 -48 -5 -53 17
-4 41 2 387 94 105 28 257 68 340 89 82 22 154 44 159 49 18 18 -3 40 -36 39
-18 0 -211 -48 -428 -105z"/>
<path d="M9125 3015 c-232 -54 -728 -184 -738 -194 -18 -18 1 -41 34 -41 31 0
758 181 812 202 30 11 37 42 11 52 -9 3 -16 6 -17 5 -1 0 -47 -11 -102 -24z"/>
<path d="M8701 2551 c-226 -58 -262 -74 -233 -103 14 -14 64 -5 321 58 174 43
209 58 198 88 -9 24 -41 19 -286 -43z"/>
<path d="M4388 3086 c-80 -29 -119 -71 -161 -171 -84 -200 -70 -179 -125 -186
-27 -4 -65 -14 -85 -24 -96 -45 -104 -179 -15 -255 l29 -25 -23 -57 c-22 -57
-24 -58 -62 -58 -61 0 -115 -21 -146 -57 -56 -63 -37 -177 37 -231 l26 -19
-20 -53 -21 -54 -63 -11 c-111 -18 -159 -63 -159 -150 0 -54 18 -93 60 -128
l30 -26 -19 -48 -19 -48 -62 -7 c-75 -8 -130 -41 -153 -91 -34 -71 -14 -149
51 -197 l29 -22 -26 -64 c-25 -61 -27 -64 -61 -64 -129 -1 -222 -97 -192 -198
12 -39 44 -81 75 -98 15 -9 14 -15 -8 -77 -31 -83 -32 -147 -4 -204 25 -52 63
-84 148 -127 78 -39 411 -168 687 -266 195 -70 197 -70 298 -69 83 0 96 2 71
11 -470 163 -1015 373 -1078 414 -74 49 -93 115 -61 211 20 61 124 305 133
316 4 4 21 3 37 -4 83 -33 113 -38 128 -23 24 24 8 41 -65 70 -38 15 -69 29
-69 31 0 14 153 363 159 363 4 0 36 -11 71 -25 l64 -25 20 20 c18 17 19 22 6
34 -8 7 -42 24 -75 37 -33 13 -61 24 -63 24 -2 2 32 84 105 260 14 33 29 70
34 81 l8 22 65 -24 c68 -24 90 -24 101 4 8 22 -10 35 -81 61 l-62 23 60 151
c33 84 64 162 69 174 l8 22 72 -25 c55 -19 74 -22 85 -13 29 24 16 47 -41 68
-31 12 -60 21 -65 21 -24 0 -15 32 51 198 l71 179 71 -22 c74 -24 92 -23 101
2 10 24 -9 38 -74 58 -34 10 -63 21 -65 24 -5 9 77 212 98 244 24 37 87 67
140 67 85 0 1334 -435 1735 -604 176 -75 240 -146 229 -256 -12 -109 -58 -237
-394 -1080 -199 -500 -399 -983 -439 -1062 l-15 -28 40 0 39 0 67 153 c197
447 692 1693 748 1885 59 198 10 321 -160 410 -164 85 -802 322 -1437 534
-350 118 -416 131 -488 104z m-268 -430 c0 -6 -60 -149 -64 -154 -3 -2 -14 6
-25 17 -32 32 -29 93 5 120 22 17 84 30 84 17z m-170 -423 c0 -5 -14 -43 -31
-86 l-32 -79 -24 24 c-13 13 -26 40 -29 59 -8 47 30 89 81 89 19 0 35 -3 35
-7z m-163 -425 c-2 -7 -19 -48 -38 -92 l-33 -79 -23 27 c-23 27 -30 76 -17
111 4 10 21 23 38 31 40 17 80 18 73 2z m-169 -406 c-1 -5 -18 -45 -37 -90
l-35 -82 -28 27 c-60 57 -17 153 69 153 19 0 33 -4 31 -8z m-200 -474 c-11
-23 -29 -62 -39 -85 -10 -24 -23 -43 -28 -43 -15 0 -51 56 -51 80 0 49 47 89
107 90 l31 0 -20 -42z"/>
<path d="M4574 2555 c-8 -21 2 -32 44 -45 20 -7 222 -81 447 -165 721 -269
955 -355 971 -355 21 0 29 29 13 44 -28 27 -1405 536 -1448 536 -12 0 -24 -7
-27 -15z"/>
<path d="M4397 2157 c-12 -33 -48 -18 663 -275 151 -55 396 -145 543 -201 217
-82 271 -99 287 -91 52 28 31 38 -345 175 -832 303 -1116 405 -1129 405 -8 0
-16 -6 -19 -13z"/>
<path d="M4237 1753 c-16 -15 -5 -34 29 -48 48 -20 695 -262 1098 -410 321
-118 351 -125 351 -84 0 21 -37 36 -410 173 -187 68 -494 181 -682 250 -328
121 -371 134 -386 119z"/>
<path d="M7725 1453 c-368 -34 -588 -111 -627 -218 -8 -23 -19 -35 -30 -35
-90 0 -287 -71 -308 -110 -16 -30 -4 -86 23 -105 28 -20 127 -49 242 -71 59
-11 99 -25 117 -40 54 -44 147 -56 447 -55 150 0 299 3 330 6 31 3 160 14 286
25 386 33 414 39 477 98 24 22 38 26 98 28 103 3 150 38 171 129 8 37 8 66 0
109 -13 70 -30 99 -74 127 -27 17 -43 20 -107 15 -64 -4 -81 -2 -105 14 -52
34 -176 62 -350 79 -89 8 -512 12 -590 4z m223 -70 c-16 -2 -40 -2 -55 0 -16
2 -3 4 27 4 30 0 43 -2 28 -4z m120 0 c-15 -2 -42 -2 -60 0 -18 2 -6 4 27 4
33 0 48 -2 33 -4z m59 1 c-3 -3 -12 -4 -19 -1 -8 3 -5 6 6 6 11 1 17 -2 13 -5z
m201 -11 c-10 -2 -26 -2 -35 0 -10 3 -2 5 17 5 19 0 27 -2 18 -5z m-675 -10
c-7 -2 -19 -2 -25 0 -7 3 -2 5 12 5 14 0 19 -2 13 -5z m818 -11 c-18 -2 -37 0
-42 5 -5 5 11 6 34 3 41 -4 41 -5 8 -8z m-904 2 c-3 -3 -12 -4 -19 -1 -8 3 -5
6 6 6 11 1 17 -2 13 -5z m-44 -11 c-7 -2 -19 -2 -25 0 -7 3 -2 5 12 5 14 0 19
-2 13 -5z m1054 -9 c-3 -3 -12 -4 -19 -1 -8 3 -5 6 6 6 11 1 17 -2 13 -5z m43
-14 c8 -5 12 -11 10 -14 -3 -2 -14 2 -24 10 -22 15 -10 19 14 4z m-1247 -7
c-7 -2 -19 -2 -25 0 -7 3 -2 5 12 5 14 0 19 -2 13 -5z m1402 -33 c-3 -5 -12
-10 -18 -10 -7 0 -6 4 3 10 19 12 23 12 15 0z m96 -17 c13 -17 13 -17 -6 -3
-11 8 -22 16 -24 17 -2 2 0 3 6 3 6 0 17 -8 24 -17z m-1661 -6 c0 -2 -10 -12
-22 -23 l-23 -19 19 23 c18 21 26 27 26 19z m1527 -29 c-3 -8 -6 -5 -6 6 -1
11 2 17 5 13 3 -3 4 -12 1 -19z m153 -9 c0 -6 -4 -7 -10 -4 -5 3 -10 11 -10
16 0 6 5 7 10 4 6 -3 10 -11 10 -16z m-1733 -61 c-3 -8 -6 -5 -6 6 -1 11 2 17
5 13 3 -3 4 -12 1 -19z m1320 16 c-3 -3 -12 -4 -19 -1 -8 3 -5 6 6 6 11 1 17
-2 13 -5z m-234 -11 c-7 -2 -19 -2 -25 0 -7 3 -2 5 12 5 14 0 19 -2 13 -5z
m44 1 c-3 -3 -12 -4 -19 -1 -8 3 -5 6 6 6 11 1 17 -2 13 -5z m66 -1 c-7 -2
-21 -2 -30 0 -10 3 -4 5 12 5 17 0 24 -2 18 -5z m534 -40 c-3 -10 -5 -2 -5 17
0 19 2 27 5 18 2 -10 2 -26 0 -35z m-929 30 c-10 -2 -26 -2 -35 0 -10 3 -2 5
17 5 19 0 27 -2 18 -5z m572 -28 c0 -5 -5 -3 -10 5 -5 8 -10 20 -10 25 0 6 5
3 10 -5 5 -8 10 -19 10 -25z m-797 18 c-13 -2 -35 -2 -50 0 -16 2 -5 4 22 4
28 0 40 -2 28 -4z m60 0 c-7 -2 -19 -2 -25 0 -7 3 -2 5 12 5 14 0 19 -2 13 -5z
m-636 -50 c-3 -10 -5 -2 -5 17 0 19 2 27 5 18 2 -10 2 -26 0 -35z m341 40
c-10 -2 -28 -2 -40 0 -13 2 -5 4 17 4 22 1 32 -1 23 -4z m49 1 c-3 -3 -12 -4
-19 -1 -8 3 -5 6 6 6 11 1 17 -2 13 -5z m-480 -51 c-3 -10 -5 -2 -5 17 0 19 2
27 5 18 2 -10 2 -26 0 -35z m-60 31 c-3 -3 -12 -4 -19 -1 -8 3 -5 6 6 6 11 1
17 -2 13 -5z m-48 -8 c-2 -1 -19 -8 -36 -14 -37 -12 -45 -6 -10 8 22 9 54 13
46 6z m1551 -11 c-7 -8 -26 -14 -44 -14 l-31 2 30 4 c17 3 34 9 40 14 15 15
19 10 5 -6z m147 -17 c-3 -7 -5 -2 -5 12 0 14 2 19 5 13 2 -7 2 -19 0 -25z
m213 2 c-6 -11 -13 -20 -16 -20 -2 0 0 9 6 20 6 11 13 20 16 20 2 0 0 -9 -6
-20z m-1537 -49 c-4 -6 -53 41 -53 50 0 4 13 -4 28 -19 15 -15 26 -29 25 -31z
m1090 52 c-7 -2 -19 -2 -25 0 -7 3 -2 5 12 5 14 0 19 -2 13 -5z m-280 -10
c-18 -2 -48 -2 -65 0 -18 2 -4 4 32 4 36 0 50 -2 33 -4z m95 0 c-10 -2 -28 -2
-40 0 -13 2 -5 4 17 4 22 1 32 -1 23 -4z m-375 -10 c-7 -2 -21 -2 -30 0 -10 3
-4 5 12 5 17 0 24 -2 18 -5z m65 0 c-10 -2 -26 -2 -35 0 -10 3 -2 5 17 5 19 0
27 -2 18 -5z m-331 -9 c-3 -3 -12 -4 -19 -1 -8 3 -5 6 6 6 11 1 17 -2 13 -5z
m56 -1 c-7 -2 -21 -2 -30 0 -10 3 -4 5 12 5 17 0 24 -2 18 -5z m60 0 c-7 -2
-21 -2 -30 0 -10 3 -4 5 12 5 17 0 24 -2 18 -5z m-556 -25 c-3 -8 -6 -5 -6 6
-1 11 2 17 5 13 3 -3 4 -12 1 -19z m296 15 c-7 -2 -21 -2 -30 0 -10 3 -4 5 12
5 17 0 24 -2 18 -5z m-553 -25 c10 -6 7 -7 -10 -2 -14 3 -32 11 -40 16 -10 6
-7 7 10 2 14 -3 32 -11 40 -16z m1741 -1 c-10 -9 -11 -8 -5 6 3 10 9 15 12 12
3 -3 0 -11 -7 -18z m-1564 -29 c-3 -8 -6 -5 -6 6 -1 11 2 17 5 13 3 -3 4 -12
1 -19z m1543 -3 c-7 -8 -17 -15 -23 -15 -6 0 -2 7 9 15 25 19 30 19 14 0z
m-47 -22 c-7 -2 -19 -2 -25 0 -7 3 -2 5 12 5 14 0 19 -2 13 -5z m-55 -10 c-10
-2 -28 -2 -40 0 -13 2 -5 4 17 4 22 1 32 -1 23 -4z m-125 -10 c-7 -2 -19 -2
-25 0 -7 3 -2 5 12 5 14 0 19 -2 13 -5z m-1173 -31 c-7 -3 -19 3 -28 13 -16
15 -15 16 12 4 15 -7 23 -15 16 -17z m1093 21 c-7 -2 -21 -2 -30 0 -10 3 -4 5
12 5 17 0 24 -2 18 -5z m-100 -10 c-7 -2 -19 -2 -25 0 -7 3 -2 5 12 5 14 0 19
-2 13 -5z m-145 -10 c-10 -2 -26 -2 -35 0 -10 3 -2 5 17 5 19 0 27 -2 18 -5z
m-274 -11 c3 -5 -14 -9 -37 -9 l-42 -1 35 8 c19 4 36 8 37 9 1 0 4 -3 7 -7z
m149 1 c-7 -2 -19 -2 -25 0 -7 3 -2 5 12 5 14 0 19 -2 13 -5z m-360 -10 c-7
-2 -19 -2 -25 0 -7 3 -2 5 12 5 14 0 19 -2 13 -5z m105 0 c-15 -2 -42 -2 -60
0 -18 2 -6 4 27 4 33 0 48 -2 33 -4z"/>
<path d="M4064 1316 c-4 -10 -2 -22 3 -27 5 -5 99 -42 209 -83 543 -201 1002
-373 1117 -418 70 -27 134 -47 142 -44 18 7 19 30 3 44 -26 21 -1373 526
-1440 539 -20 4 -29 1 -34 -11z"/>
<path d="M3867 906 c-5 -13 21 -46 36 -46 4 0 145 -51 314 -114 773 -286 1103
-406 1122 -406 11 0 23 5 27 11 16 26 42 16 -957 383 -278 102 -512 186 -521
186 -9 0 -18 -6 -21 -14z"/>
</g>
</svg>
